<svg width="64" height="64" viewBox="0 0 64 64" fill="none" xmlns="http://www.w3.org/2000/svg">
<path d="M60.4082 7H3.59184C3.43487 7 3.28434 7.06235 3.17335 7.17335C3.06235 7.28434 3 7.43487 3 7.59184V56.3592C3 56.5161 3.06235 56.6667 3.17335 56.7777C3.28434 56.8887 3.43487 56.951 3.59184 56.951H60.4082C60.5651 56.951 60.7157 56.8887 60.8267 56.7777C60.9376 56.6667 61 56.5161 61 56.3592V7.59184C61 7.43487 60.9376 7.28434 60.8267 7.17335C60.7157 7.06235 60.5651 7 60.4082 7ZM59.8163 8.18367V18.0236H4.18367V8.18367H59.8163ZM4.18367 55.7673V19.2108H59.8163V55.7673H4.18367Z" fill="white"/>
<path d="M53.7466 13.6998H55.9104C56.0673 13.6998 56.2179 13.6374 56.3289 13.5264C56.4399 13.4155 56.5022 13.2649 56.5022 13.1079C56.5022 12.951 56.4399 12.8004 56.3289 12.6895C56.2179 12.5785 56.0673 12.5161 55.9104 12.5161H53.7466C53.5897 12.5161 53.4391 12.5785 53.3281 12.6895C53.2171 12.8004 53.1548 12.951 53.1548 13.1079C53.1548 13.2649 53.2171 13.4155 53.3281 13.5264C53.4391 13.6374 53.5897 13.6998 53.7466 13.6998Z" fill="white"/>
<path d="M45.9922 13.6998H48.1595C48.3165 13.6998 48.467 13.6374 48.578 13.5264C48.689 13.4155 48.7514 13.2649 48.7514 13.1079C48.7514 12.951 48.689 12.8004 48.578 12.6895C48.467 12.5785 48.3165 12.5161 48.1595 12.5161H45.9922C45.8353 12.5161 45.6847 12.5785 45.5737 12.6895C45.4627 12.8004 45.4004 12.951 45.4004 13.1079C45.4004 13.2649 45.4627 13.4155 45.5737 13.5264C45.6847 13.6374 45.8353 13.6998 45.9922 13.6998Z" fill="white"/>
<path d="M37.2759 13.6998H39.4444C39.6014 13.6998 39.7519 13.6374 39.8629 13.5264C39.9739 13.4155 40.0362 13.2649 40.0362 13.1079C40.0362 12.951 39.9739 12.8004 39.8629 12.6895C39.7519 12.5785 39.6014 12.5161 39.4444 12.5161H37.2759C37.119 12.5161 36.9684 12.5785 36.8574 12.6895C36.7464 12.8004 36.6841 12.951 36.6841 13.1079C36.6841 13.2649 36.7464 13.4155 36.8574 13.5264C36.9684 13.6374 37.119 13.6998 37.2759 13.6998Z" fill="white"/>
<path d="M7.9644 13.6998H23.4267C23.5837 13.6998 23.7342 13.6374 23.8452 13.5264C23.9562 13.4155 24.0186 13.2649 24.0186 13.1079C24.0186 12.951 23.9562 12.8004 23.8452 12.6895C23.7342 12.5785 23.5837 12.5161 23.4267 12.5161H7.9644C7.80743 12.5161 7.65689 12.5785 7.5459 12.6895C7.43491 12.8004 7.37256 12.951 7.37256 13.1079C7.37256 13.2649 7.43491 13.4155 7.5459 13.5264C7.65689 13.6374 7.80743 13.6998 7.9644 13.6998Z" fill="white"/>
<path d="M49.1704 48.6427H45.546V25.7398C45.546 25.5828 45.4836 25.4323 45.3726 25.3213C45.2616 25.2103 45.1111 25.1479 44.9541 25.1479H39.798C39.6411 25.1479 39.4905 25.2103 39.3795 25.3213C39.2686 25.4323 39.2062 25.5828 39.2062 25.7398V48.6427H35.454V34.9878C35.454 34.8309 35.3916 34.6803 35.2806 34.5693C35.1696 34.4583 35.0191 34.396 34.8621 34.396H29.706C29.5491 34.396 29.3985 34.4583 29.2875 34.5693C29.1766 34.6803 29.1142 34.8309 29.1142 34.9878V48.6427H24.7938V39.2337C24.7938 39.0767 24.7314 38.9262 24.6204 38.8152C24.5095 38.7042 24.3589 38.6418 24.202 38.6418H19.0459C18.8889 38.6418 18.7384 38.7042 18.6274 38.8152C18.5164 38.9262 18.454 39.0767 18.454 39.2337V48.6427H14.8296C14.6727 48.6427 14.5221 48.705 14.4111 48.816C14.3001 48.927 14.2378 49.0776 14.2378 49.2345C14.2378 49.3915 14.3001 49.542 14.4111 49.653C14.5221 49.764 14.6727 49.8264 14.8296 49.8264H49.1704C49.3273 49.8264 49.4779 49.764 49.5889 49.653C49.6998 49.542 49.7622 49.3915 49.7622 49.2345C49.7622 49.0776 49.6998 48.927 49.5889 48.816C49.4779 48.705 49.3273 48.6427 49.1704 48.6427ZM40.3899 26.3316H44.3623V48.6427H40.3899V26.3316ZM30.2979 35.5797H34.2703V48.6427H30.2979V35.5797ZM19.6377 39.8255H23.6101V48.6427H19.6377V39.8255Z" fill="white"/>
</svg>
