<svg width="56" height="56" viewBox="0 0 56 56" fill="none" xmlns="http://www.w3.org/2000/svg">
<path d="M33.5086 13.6744C33.3706 13.6742 33.2353 13.6363 33.1173 13.5647C32.8881 13.4253 32.6408 13.3179 32.3825 13.2454C32.1922 13.1888 32.0317 13.0597 31.9357 12.8859C31.8397 12.7121 31.8158 12.5076 31.8692 12.3163C31.9226 12.1251 32.0491 11.9625 32.2212 11.8637C32.3934 11.7648 32.5976 11.7376 32.7897 11.7878C33.1804 11.8974 33.5543 12.0595 33.9013 12.2699C34.043 12.3554 34.1526 12.485 34.2136 12.6388C34.2746 12.7926 34.2835 12.9621 34.2389 13.1215C34.1944 13.2808 34.0988 13.4211 33.9669 13.521C33.835 13.6209 33.674 13.6748 33.5086 13.6744Z" fill="white"/>
<path d="M35.4085 20.0389H20.5912C20.3905 20.0389 20.198 19.9592 20.0561 19.8173C19.9142 19.6753 19.8345 19.4829 19.8345 19.2822V16.2476C19.8361 15.0197 20.3245 13.8427 21.1927 12.9745C22.0609 12.1063 23.238 11.6178 24.4658 11.6162H30.0129C30.2136 11.6162 30.406 11.6959 30.548 11.8379C30.6899 11.9798 30.7696 12.1723 30.7696 12.373C30.7696 12.5737 30.6899 12.7662 30.548 12.9081C30.406 13.05 30.2136 13.1297 30.0129 13.1297H24.4658C23.6392 13.1305 22.8466 13.4593 22.2621 14.0438C21.6775 14.6283 21.3488 15.4209 21.348 16.2476V18.5254H34.6518V16.2476C34.6524 15.9365 34.6051 15.6271 34.5118 15.3304C34.4857 15.2344 34.4788 15.1342 34.4914 15.0355C34.504 14.9368 34.536 14.8416 34.5854 14.7553C34.6349 14.6689 34.7008 14.5932 34.7795 14.5324C34.8582 14.4715 34.9481 14.4268 35.0441 14.4007C35.1401 14.3746 35.2403 14.3677 35.339 14.3803C35.4377 14.393 35.5329 14.4249 35.6192 14.4743C35.7056 14.5238 35.7813 14.5897 35.8422 14.6684C35.903 14.7472 35.9477 14.8371 35.9738 14.9331C36.101 15.3596 36.1655 15.8024 36.1653 16.2476V19.2822C36.1653 19.4829 36.0856 19.6753 35.9436 19.8173C35.8017 19.9592 35.6092 20.0389 35.4085 20.0389Z" fill="white"/>
<path d="M27.9998 9.4854C27.0746 9.4854 26.1702 9.21105 25.401 8.69704C24.6318 8.18304 24.0323 7.45247 23.6783 6.59772C23.3242 5.74297 23.2317 4.80244 23.4122 3.89507C23.5927 2.9877 24.0383 2.15425 24.6925 1.50012C25.3468 0.845986 26.1803 0.400555 27.0877 0.220158C27.9951 0.0397606 28.9356 0.132499 29.7903 0.486645C30.645 0.840791 31.3755 1.44044 31.8894 2.20975C32.4032 2.97906 32.6774 3.88349 32.6773 4.80864C32.6759 6.0487 32.1826 7.23755 31.3057 8.11433C30.4288 8.99111 29.2398 9.4842 27.9998 9.4854ZM27.9998 1.64389C27.374 1.64389 26.7623 1.82943 26.242 2.17706C25.7217 2.5247 25.3162 3.0188 25.0767 3.5969C24.8372 4.175 24.7745 4.81114 24.8965 5.42487C25.0185 6.03861 25.3198 6.60238 25.7622 7.04491C26.2046 7.48743 26.7683 7.78883 27.3821 7.911C27.9958 8.03317 28.6319 7.97062 29.2101 7.73126C29.7882 7.4919 30.2824 7.08648 30.6302 6.56626C30.9779 6.04604 31.1636 5.43439 31.1638 4.80864C31.163 3.96968 30.8294 3.16529 30.2362 2.57197C29.6431 1.97866 28.8387 1.64489 27.9998 1.64389Z" fill="white"/>
<path d="M46.3234 45.314C45.3984 45.3131 44.4944 45.038 43.7258 44.5234C42.9571 44.0088 42.3583 43.2779 42.005 42.423C41.6517 41.5681 41.5598 40.6277 41.7409 39.7206C41.9221 38.8135 42.3681 37.9805 43.0225 37.3269C43.677 36.6732 44.5106 36.2283 45.418 36.0483C46.3253 35.8684 47.2656 35.9615 48.12 36.3159C48.9744 36.6703 49.7046 37.2701 50.2182 38.0394C50.7318 38.8087 51.0057 39.713 51.0054 40.638C51.0038 41.8787 50.5098 43.0681 49.6319 43.9448C48.7541 44.8216 47.5641 45.314 46.3234 45.314ZM46.3234 37.4725C45.6978 37.4734 45.0866 37.6597 44.5669 38.0078C44.0473 38.356 43.6424 38.8503 43.4036 39.4285C43.1648 40.0066 43.1027 40.6426 43.2251 41.256C43.3476 41.8694 43.6492 42.4328 44.0917 42.8749C44.5342 43.317 45.0978 43.618 45.7114 43.7398C46.3249 43.8617 46.9608 43.799 47.5387 43.5597C48.1166 43.3203 48.6106 42.915 48.9583 42.3949C49.3059 41.8749 49.4916 41.2635 49.4919 40.638C49.4917 40.2221 49.4096 39.8103 49.2503 39.4262C49.0909 39.042 48.8575 38.693 48.5632 38.399C48.269 38.1051 47.9198 37.872 47.5354 37.713C47.1511 37.554 46.7393 37.4723 46.3234 37.4725Z" fill="white"/>
<path d="M53.7299 55.8699H38.9179C38.7172 55.8699 38.5247 55.7902 38.3828 55.6483C38.2409 55.5064 38.1611 55.3139 38.1611 55.1132V52.074C38.1633 50.8475 38.6518 49.6718 39.5194 48.8048C40.3869 47.9378 41.5629 47.4501 42.7895 47.4487H49.8583C51.0849 47.4501 52.2608 47.9378 53.1284 48.8048C53.996 49.6718 54.4844 50.8475 54.4866 52.074V55.1132C54.4866 55.3139 54.4069 55.5064 54.265 55.6483C54.1231 55.7902 53.9306 55.8699 53.7299 55.8699ZM39.6746 54.3564H52.9731V52.074C52.9715 51.2487 52.6428 50.4577 52.0589 49.8744C51.475 49.2911 50.6837 48.963 49.8583 48.9622H42.7895C41.9636 48.963 41.1718 49.2915 40.5878 49.8754C40.0039 50.4594 39.6754 51.2512 39.6746 52.0771V54.3564Z" fill="white"/>
<path d="M17.0824 55.8699H2.27043C2.06972 55.8699 1.87724 55.7902 1.73532 55.6483C1.5934 55.5064 1.51367 55.3139 1.51367 55.1132V52.074C1.51587 50.8475 2.0043 49.6718 2.87189 48.8048C3.73948 47.9378 4.91544 47.4501 6.142 47.4487H13.2109C14.4379 47.4501 15.6144 47.9382 16.482 48.8059C17.3497 49.6736 17.8378 50.85 17.8392 52.0771V55.1162C17.8384 55.3164 17.7583 55.5081 17.6165 55.6493C17.4746 55.7906 17.2826 55.8699 17.0824 55.8699ZM3.02719 54.3564H16.3257V52.074C16.3241 51.2487 15.9953 50.4577 15.4114 49.8744C14.8275 49.2911 14.0362 48.963 13.2109 48.9622H6.142C5.31667 48.963 4.52533 49.2911 3.94145 49.8744C3.35757 50.4577 3.02879 51.2487 3.02719 52.074V54.3564Z" fill="white"/>
<path d="M9.67681 45.314C8.75165 45.3142 7.84723 45.04 7.07791 44.5261C6.3086 44.0122 5.70895 43.2817 5.35481 42.427C5.00066 41.5723 4.90792 40.6318 5.08832 39.7244C5.26872 38.817 5.71415 37.9835 6.36828 37.3293C7.02241 36.675 7.85587 36.2295 8.76323 36.0489C9.6706 35.8684 10.6111 35.961 11.4659 36.315C12.3206 36.669 13.0512 37.2685 13.5652 38.0377C14.0792 38.807 14.3536 39.7113 14.3536 40.6365C14.3522 41.8765 13.859 43.0653 12.9823 43.9422C12.1055 44.8191 10.9168 45.3124 9.67681 45.314ZM9.67681 37.4725C9.051 37.4724 8.43919 37.6578 7.91878 38.0054C7.39836 38.3529 6.9927 38.847 6.75311 39.4252C6.51352 40.0033 6.45076 40.6395 6.57275 41.2533C6.69475 41.8671 6.99603 42.431 7.4385 42.8735C7.88096 43.3161 8.44473 43.6175 9.05851 43.7397C9.67228 43.8618 10.3085 43.7992 10.8867 43.5597C11.4649 43.3203 11.9591 42.9147 12.3068 42.3944C12.6545 41.8741 12.8401 41.2623 12.8401 40.6365C12.839 39.7978 12.5055 38.9937 11.9125 38.4006C11.3195 37.8075 10.5155 37.4737 9.67681 37.4725Z" fill="white"/>
<path d="M27.9999 34.182C27.7992 34.182 27.6067 34.1023 27.4648 33.9604C27.3229 33.8184 27.2432 33.626 27.2432 33.4253V25.1713C27.2432 24.9706 27.3229 24.7781 27.4648 24.6362C27.6067 24.4943 27.7992 24.4146 27.9999 24.4146C28.2006 24.4146 28.3931 24.4943 28.535 24.6362C28.6769 24.7781 28.7567 24.9706 28.7567 25.1713V33.4253C28.7567 33.626 28.6769 33.8184 28.535 33.9604C28.3931 34.1023 28.2006 34.182 27.9999 34.182Z" fill="white"/>
<path d="M35.4161 39.5952C35.2561 39.5954 35.1002 39.5445 34.9711 39.4499L27.9999 34.363L21.0324 39.4499C20.8701 39.5633 20.6699 39.6086 20.4746 39.576C20.2793 39.5435 20.1046 39.4357 19.9878 39.2758C19.8711 39.1159 19.8217 38.9166 19.8502 38.7207C19.8786 38.5248 19.9828 38.3478 20.1402 38.2278L27.5564 32.8147C27.686 32.72 27.8424 32.6689 28.0029 32.6689C28.1634 32.6689 28.3198 32.72 28.4494 32.8147L35.8656 38.2278C35.9944 38.322 36.0901 38.4546 36.1391 38.6066C36.188 38.7585 36.1876 38.922 36.138 39.0737C36.0884 39.2254 35.992 39.3576 35.8628 39.4512C35.7335 39.5449 35.578 39.5953 35.4184 39.5952H35.4161Z" fill="white"/>
</svg>
