<svg width="160" height="159" viewBox="0 0 160 159" fill="none" xmlns="http://www.w3.org/2000/svg">
<g id="1 120626" clip-path="url(#clip0_120_312)">
<g id="Group">
<path id="Vector" d="M75.5077 135.772L50.8923 134.738L51.0154 135.346L50.7077 135.468L50.5231 135.103L3.56927 44.7409H3.07697L3.4462 44.3761V44.2545H3.56927L26.9539 15.7351V15.431L27.3231 15.6134L58.2154 24.1875L121.108 0.958496V1.08011H121.169V1.26254L108.677 37.9911L156.554 51.2475V73.5644L156.862 73.686L156.738 73.99L156.308 73.8684L75.5693 135.772H75.5077ZM75.2 135.225L64.4923 108.773L51.077 134.252L75.2 135.225ZM75.9385 134.921L155.754 73.7468L100.185 63.1052L75.9385 134.921ZM75.5077 134.921L99.7539 63.0444L89.6 61.0985L64.7385 108.286L75.5077 134.921ZM50.8308 133.948L64.3077 108.225L41.5385 51.8556L34.277 50.457L50.8308 133.948ZM50.2154 133.461L33.7847 50.457L4.06158 44.7409L50.2154 133.461ZM64.5539 107.8L89.1693 61.0377L42.0308 52.038L64.5539 107.8ZM156.123 73.3211V51.6123L108.554 38.4168L104.554 50.2137L156.123 73.3211ZM154.585 73.1387L104.431 50.6394L100.369 62.8012L154.585 73.1387ZM99.9385 62.6188L104.062 50.3962L96.9231 47.1733L89.8462 60.6729L99.9385 62.6188ZM89.3539 60.6121L96.4923 47.0517L51.6308 26.9847L34.4616 33.3088L41.8462 51.5515L89.3539 60.6121ZM41.2923 51.4299L34.0308 33.4305L31.077 34.4642L34.1539 49.9705L41.2923 51.4299ZM104.185 50.0921L108.123 38.356L102.4 36.775L97.0462 46.8692L104.185 50.0921ZM33.6616 49.9705L30.6462 34.7075L4.43081 44.4369L33.6616 49.9705ZM96.677 46.6868L101.908 36.6533L58.2154 24.5524L52.2462 26.8023L96.677 46.6868ZM4.30773 43.9504L30.6462 34.2818L27.077 16.2215L4.30773 43.9504ZM108.246 37.9303L119.815 3.63409L102.585 36.3493L108.246 37.9303ZM102.154 36.2885L120.431 1.56659L58.8923 24.3091L102.154 36.2885ZM31.0154 34.0994L33.9077 33.0656L27.877 18.1674L31.0154 34.0994ZM34.3385 32.944L51.077 26.6807L27.5077 16.0999L34.3385 32.944ZM51.6923 26.4982L57.477 24.3091L29.8462 16.708L51.6923 26.4982Z" fill="white"/>
<path id="Vector_2" d="M156.369 73.7468L156.862 73.8684L156.431 73.6859V51.3691L108.492 38.1127L120.985 1.14089H120.923V1.08008L58.2154 24.2483L27.2615 15.6742L27.1385 15.6134V15.6742V15.735L3.69231 44.376H3.63077V44.4369L3.50769 44.5585H3.69231L50.7077 134.981L50.8923 135.346L50.7077 134.556L75.5077 135.589H75.5692L156.369 73.7468ZM27.3231 15.8566L51.5077 26.6806L34.2769 33.1264L27.3231 15.9783V15.8566ZM34.1538 33.1264L30.9538 34.2818L27.4462 16.5864L34.1538 33.1264ZM34.1538 33.248L41.6 51.6123L34.0923 50.1529L30.9538 34.4034L34.1538 33.248ZM34.2769 33.248L51.6923 26.8023L96.7385 46.9908L89.4769 60.7945L41.7846 51.6731L34.2769 33.248ZM104.246 50.3353L100.062 62.8012L89.6 60.7945L96.8615 46.9908L104.246 50.3353ZM96.9231 46.93L102.4 36.5925L108.369 38.2343L104.308 50.2745L96.9231 46.93ZM104.369 50.3961L155.877 73.5035L100.185 62.862L104.369 50.3961ZM89.4154 60.9161L64.5538 108.165L41.7846 51.8555L89.4154 60.9161ZM89.5385 60.9161L100 62.9228L75.5692 135.346L64.6154 108.286L89.5385 60.9161ZM100.123 62.9836L156.185 73.6859L75.6923 135.346L100.123 62.9836ZM156.308 51.4907V73.5643L104.431 50.2745L108.492 38.2343L156.308 51.4907ZM108.369 38.1127L102.4 36.4709L120.615 1.8706L108.369 38.1127ZM120.8 1.26251L102.277 36.4709L58.4 24.3091L120.8 1.26251ZM58.2154 24.3699L102.215 36.5317L96.8 46.8692L51.8769 26.7415L58.2154 24.3699ZM51.6923 26.6806L28 16.0391L57.9692 24.3091L51.6923 26.6806ZM27.2 15.9175L27.2615 16.0391L30.8923 34.4034L3.87692 44.3152L27.2 15.9175ZM30.8308 34.4642L33.9077 50.1529L3.93846 44.4369L30.8308 34.4642ZM3.81538 44.5585L33.9692 50.3353L50.5846 134.495L3.81538 44.5585ZM34.0923 50.3353L41.6615 51.7947L64.4923 108.286L50.7692 134.434L34.0923 50.3353ZM64.5538 108.408L75.4462 135.407L50.8308 134.373L64.5538 108.408Z" fill="white"/>
<g id="Group_2">
<path id="Vector_3" d="M120.923 2.0532C121.365 2.0532 121.723 1.69927 121.723 1.26268C121.723 0.826095 121.365 0.472168 120.923 0.472168C120.481 0.472168 120.123 0.826095 120.123 1.26268C120.123 1.69927 120.481 2.0532 120.923 2.0532Z" fill="white"/>
<path id="Vector_4" d="M121.539 1.26483C121.539 1.62968 121.292 1.87292 120.923 1.87292C120.554 1.87292 120.308 1.56887 120.308 1.26483C120.308 0.899974 120.615 0.656738 120.923 0.656738C121.292 0.656738 121.539 0.960783 121.539 1.26483Z" fill="white"/>
<path id="Vector_5" d="M156.308 52.2207C156.75 52.2207 157.108 51.8668 157.108 51.4302C157.108 50.9936 156.75 50.6396 156.308 50.6396C155.866 50.6396 155.508 50.9936 155.508 51.4302C155.508 51.8668 155.866 52.2207 156.308 52.2207Z" fill="white"/>
<path id="Vector_6" d="M156.985 51.4299C156.985 51.7947 156.677 52.038 156.369 52.038C156 52.038 155.754 51.7339 155.754 51.4299C155.754 51.065 156.062 50.8218 156.369 50.8218C156.677 50.8218 156.985 51.065 156.985 51.4299Z" fill="white"/>
<path id="Vector_7" d="M156.308 74.416C156.75 74.416 157.108 74.0621 157.108 73.6255C157.108 73.1889 156.75 72.835 156.308 72.835C155.866 72.835 155.508 73.1889 155.508 73.6255C155.508 74.0621 155.866 74.416 156.308 74.416Z" fill="white"/>
<path id="Vector_8" d="M156.985 73.6252C156.985 73.99 156.677 74.2333 156.369 74.2333C156 74.2333 155.754 73.9292 155.754 73.6252C155.754 73.2603 156.062 73.0171 156.369 73.0171C156.677 73.0171 156.985 73.3211 156.985 73.6252Z" fill="white"/>
<path id="Vector_9" d="M75.5693 136.319C76.0111 136.319 76.3693 135.965 76.3693 135.529C76.3693 135.092 76.0111 134.738 75.5693 134.738C75.1274 134.738 74.7693 135.092 74.7693 135.529C74.7693 135.965 75.1274 136.319 75.5693 136.319Z" fill="white"/>
<path id="Vector_10" d="M76.1846 135.529C76.1846 135.894 75.8769 136.137 75.5692 136.137C75.2 136.137 74.9539 135.833 74.9539 135.529C74.9539 135.164 75.2 134.921 75.5692 134.921C75.8769 134.921 76.1846 135.164 76.1846 135.529Z" fill="white"/>
<path id="Vector_11" d="M50.7693 135.103C51.2111 135.103 51.5693 134.749 51.5693 134.312C51.5693 133.876 51.2111 133.522 50.7693 133.522C50.3274 133.522 49.9693 133.876 49.9693 134.312C49.9693 134.749 50.3274 135.103 50.7693 135.103Z" fill="white"/>
<path id="Vector_12" d="M51.3846 134.313C51.3846 134.678 51.0769 134.921 50.7693 134.921C50.4 134.921 50.1539 134.617 50.1539 134.313C50.1539 133.948 50.4616 133.705 50.7693 133.705C51.1385 133.705 51.3846 133.948 51.3846 134.313Z" fill="white"/>
<path id="Vector_13" d="M3.69233 45.2275C4.13416 45.2275 4.49233 44.8736 4.49233 44.437C4.49233 44.0004 4.13416 43.6465 3.69233 43.6465C3.25051 43.6465 2.89233 44.0004 2.89233 44.437C2.89233 44.8736 3.25051 45.2275 3.69233 45.2275Z" fill="white"/>
<path id="Vector_14" d="M4.30773 44.4372C4.30773 44.802 4.00004 45.0453 3.69235 45.0453C3.32312 45.0453 3.07697 44.7412 3.07697 44.4372C3.07697 44.0723 3.38466 43.8291 3.69235 43.8291C4.06158 43.8291 4.30773 44.1331 4.30773 44.4372Z" fill="white"/>
<path id="Vector_15" d="M27.2 16.5259C27.6419 16.5259 28 16.1719 28 15.7353C28 15.2988 27.6419 14.9448 27.2 14.9448C26.7582 14.9448 26.4 15.2988 26.4 15.7353C26.4 16.1719 26.7582 16.5259 27.2 16.5259Z" fill="white"/>
<path id="Vector_16" d="M27.8154 15.735C27.8154 16.0999 27.5077 16.3431 27.2 16.3431C26.8308 16.3431 26.5847 16.0391 26.5847 15.735C26.5847 15.3702 26.8923 15.127 27.2 15.127C27.5077 15.127 27.8154 15.431 27.8154 15.735Z" fill="white"/>
</g>
</g>
</g>
<defs>
<clipPath id="clip0_120_312">
<rect width="160" height="158.103" fill="white" transform="translate(0 0.472168)"/>
</clipPath>
</defs>
</svg>
