<svg width="250" height="250" viewBox="0 0 250 250" fill="none" xmlns="http://www.w3.org/2000/svg">
<g id="4 2" clip-path="url(#clip0_120_116)">
<g id="Group">
<g id="Group_2">
<g id="Group_3">
<path id="Vector" d="M74.8 1.1L75.1 0.5L248.8 100.3L248.5 100.9L74.8 1.1Z" fill="white"/>
<path id="Vector_2" d="M248.4 100.6L75.1 0.999805L75.2 0.799805L248.5 100.4L248.4 100.6Z" fill="white"/>
<path id="Vector_3" d="M36.1 20.3001L36.9 20.1001L92.5 249.1L91.8 249.5L36.1 20.3001Z" fill="white"/>
<path id="Vector_4" d="M92 249.1L36.4 20.4999L36.7 20.3999L92.2 249L92 249.1Z" fill="white"/>
<path id="Vector_5" d="M91.8001 249.3L74.7001 0.600098H75.5001L92.5001 249.3H91.8001Z" fill="white"/>
<path id="Vector_6" d="M92 249.1L75 0.899902H75.3L92.2 249.1H92Z" fill="white"/>
<path id="Vector_7" d="M1.5 89.4002V88.7002L248.8 100.2V100.9L1.5 89.4002Z" fill="white"/>
<path id="Vector_8" d="M248.5 100.6L1.80005 89.2V89L248.5 100.4V100.6Z" fill="white"/>
<path id="Vector_9" d="M1.5 89.2002L2 88.7002L92.5 249.1L91.9 249.4L1.5 89.2002Z" fill="white"/>
<path id="Vector_10" d="M92 249.1L1.80005 89.2001L1.90005 89.1001L92.2 249L92 249.1Z" fill="white"/>
<path id="Vector_11" d="M36.2001 20.7001L36.5001 20.1001L248.8 100.3L248.5 100.9L36.2001 20.7001Z" fill="white"/>
<path id="Vector_12" d="M248.4 100.6L36.5 20.5999L36.6 20.3999L248.5 100.4L248.4 100.6Z" fill="white"/>
<path id="Vector_13" d="M91.8 248.9L235.9 145.7L236.4 146.1L92.1 249.6L91.8 248.9Z" fill="white"/>
<path id="Vector_14" d="M92.2 249.2L92.1 249L235.9 146L236 146.1L92.2 249.2Z" fill="white"/>
<path id="Vector_15" d="M36.1 20.3L75.2 0.5L75.5 1.1L36.6 20.8L36.1 20.3Z" fill="white"/>
<path id="Vector_16" d="M36.6 20.4998L36.5 20.3998L75.1 0.799805L75.2 0.999805L36.6 20.4998Z" fill="white"/>
<path id="Vector_17" d="M1.40002 89.4002L1.80002 88.7002L236.3 145.7V146.5L1.40002 89.4002Z" fill="white"/>
<path id="Vector_18" d="M236 146.2L1.80005 89.2L1.90005 89L236 145.9V146.2Z" fill="white"/>
<path id="Vector_19" d="M248.051 100.186L235.816 146.288L236.492 146.467L248.727 100.365L248.051 100.186Z" fill="white"/>
<path id="Vector_20" d="M248.165 100.525L236.059 146.144L236.252 146.195L248.359 100.577L248.165 100.525Z" fill="white"/>
</g>
<g id="Group_4">
<path id="Vector_21" d="M236 147.3C235.2 147.3 234.7 146.7 234.7 146C234.7 145.2 235.3 144.7 236 144.7C236 144.7 236.1 144.7 236.2 144.7C236.8 144.7 237.3 145.2 237.3 146C237.3 146.9 236.6 147.3 236 147.3Z" fill="white"/>
<path id="Vector_22" d="M237 146.1C237 146.7 236.5 147.1 236 147.1C235.4 147.1 235 146.6 235 146.1C235 145.5 235.5 145.1 236 145.1C236.6 145 237 145.5 237 146.1Z" fill="white"/>
<path id="Vector_23" d="M248.5 101.5C247.8 101.5 247.5 101 247.5 100.5C247.5 99.8 248 99.5 248.5 99.5H248.6C249.1 99.5 249.5 100 249.5 100.6C249.5 101.2 249 101.5 248.5 101.5Z" fill="white"/>
<path id="Vector_24" d="M249.3 100.5C249.3 101 248.9 101.3 248.5 101.3C248 101.3 247.7 100.9 247.7 100.5C247.7 100 248.1 99.7 248.5 99.7C248.9 99.6 249.3 100 249.3 100.5Z" fill="white"/>
<path id="Vector_25" d="M75.2 1.9998C74.6 1.9998 74 1.4998 74 0.899805C74 0.299805 74.5 -0.200195 75.2 -0.200195C75.9 -0.200195 76.3 0.299805 76.3 0.899805C76.3 1.4998 75.8 1.9998 75.2 1.9998Z" fill="white"/>
<path id="Vector_26" d="M76.1 0.9C76.1 1.4 75.7 1.8 75.2 1.8C74.7 1.8 74.3 1.4 74.3 0.9C74.3 0.4 74.7 0 75.2 0C75.7 0 76.1 0.4 76.1 0.9Z" fill="white"/>
<path id="Vector_27" d="M36.5 22C37.3284 22 38 21.3284 38 20.5C38 19.6716 37.3284 19 36.5 19C35.6716 19 35 19.6716 35 20.5C35 21.3284 35.6716 22 36.5 22Z" fill="white"/>
<path id="Vector_28" d="M37.7001 20.4998C37.7001 21.0998 37.2 21.6998 36.5 21.6998C35.9 21.6998 35.3 21.1998 35.3 20.4998C35.3 19.8998 35.8 19.2998 36.5 19.2998C37.2 19.2998 37.7001 19.7998 37.7001 20.4998Z" fill="white"/>
<path id="Vector_29" d="M1.80002 90.4996C1.10002 90.4996 0.400024 89.8996 0.400024 89.0996C0.400024 88.3996 1.00002 87.5996 1.80002 87.5996C2.70002 87.6996 3.30002 88.2996 3.30002 89.0996C3.30002 89.7996 2.70002 90.4996 1.80002 90.4996Z" fill="white"/>
<path id="Vector_30" d="M2.99998 89.0999C2.99998 89.6999 2.49998 90.2999 1.79998 90.2999C1.19998 90.2999 0.599976 89.7999 0.599976 89.0999C0.599976 88.4999 1.09998 87.8999 1.79998 87.8999C2.49998 87.9999 2.99998 88.4999 2.99998 89.0999Z" fill="white"/>
<path id="Vector_31" d="M92.2 250.3C91.6 250.3 91 249.8 91 249.1C91 248.5 91.5 248 92.2 248C92.9 248 93.3 248.5 93.3 249.1C93.4 249.7 92.8 250.3 92.2 250.3Z" fill="white"/>
<path id="Vector_32" d="M93.1 249.1C93.1 249.6 92.7 250 92.2 250C91.7 250 91.3 249.6 91.3 249.1C91.3 248.6 91.7 248.2 92.2 248.2C92.7 248.2 93.1 248.5 93.1 249.1Z" fill="white"/>
</g>
</g>
</g>
</g>
<defs>
<clipPath id="clip0_120_116">
<rect width="250" height="250" fill="white"/>
</clipPath>
</defs>
</svg>
