<svg width="250" height="250" viewBox="0 0 250 250" fill="none" xmlns="http://www.w3.org/2000/svg">
<g id="3 2" clip-path="url(#clip0_120_78)">
<g id="Group">
<g id="Group_2">
<path id="Vector" d="M1 119.501L1.2 118.601L249.7 175.901L249.5 176.801L1 119.501Z" fill="white"/>
<path id="Vector_2" d="M249.3 176.5L1.30005 119.3L1.40005 118.9L249.4 176.1L249.3 176.5Z" fill="white"/>
<path id="Vector_3" d="M105.222 0.871312L104.451 1.50781L249.127 176.824L249.899 176.188L105.222 0.871312Z" fill="white"/>
<path id="Vector_4" d="M105.165 1.29596L104.78 1.61426L249.16 176.522L249.546 176.204L105.165 1.29596Z" fill="white"/>
<path id="Vector_5" d="M11.9229 65.2979L10.9335 65.4434L32.0601 209.104L33.0495 208.959L11.9229 65.2979Z" fill="white"/>
<path id="Vector_6" d="M11.6428 65.639L11.1482 65.7119L32.2599 208.864L32.7546 208.791L11.6428 65.639Z" fill="white"/>
<path id="Vector_7" d="M249.516 175.76L32.1556 208.444L32.3043 209.433L249.665 176.748L249.516 175.76Z" fill="white"/>
<path id="Vector_8" d="M249.248 176.002L32.3827 208.612L32.457 209.107L249.323 176.497L249.248 176.002Z" fill="white"/>
<path id="Vector_9" d="M104.718 0.864595L0.80542 118.95L1.55612 119.61L105.469 1.5252L104.718 0.864595Z" fill="white"/>
<path id="Vector_10" d="M104.811 1.21309L1.22876 118.923L1.60411 119.253L105.186 1.54339L104.811 1.21309Z" fill="white"/>
<path id="Vector_11" d="M10.8753 65.2392L0.812134 119.211L1.79523 119.395L11.8584 65.4225L10.8753 65.2392Z" fill="white"/>
<path id="Vector_12" d="M11.1338 65.4901L1.16223 118.971L1.65378 119.062L11.6253 65.5817L11.1338 65.4901Z" fill="white"/>
<path id="Vector_13" d="M32 208.6L235.6 49.3003L236 50.2003L32.6 209.4L32 208.6Z" fill="white"/>
<path id="Vector_14" d="M32.6 209L32.3 208.6L235.5 49.7002L235.7 50.1002L32.6 209Z" fill="white"/>
<path id="Vector_15" d="M104.936 0.873923L104.589 1.81152L235.759 50.4548L236.106 49.5172L104.936 0.873923Z" fill="white"/>
<path id="Vector_16" d="M105.064 1.0957L104.89 1.56445L235.578 50.0896L235.752 49.6208L105.064 1.0957Z" fill="white"/>
<path id="Vector_17" d="M11.3427 65.2184L10.9218 66.1255L249.489 176.822L249.91 175.915L11.3427 65.2184Z" fill="white"/>
<path id="Vector_18" d="M11.4876 65.3787L11.2767 65.832L249.285 176.528L249.496 176.075L11.4876 65.3787Z" fill="white"/>
<path id="Vector_19" d="M235.876 49.3915L11.1389 65.2007L11.2091 66.1982L235.946 50.389L235.876 49.3915Z" fill="white"/>
<path id="Vector_20" d="M235.597 49.7117L11.3595 65.4858L11.3946 65.9846L235.633 50.2104L235.597 49.7117Z" fill="white"/>
<path id="Vector_21" d="M104.861 1.03143L31.7543 208.746L32.6976 209.078L105.804 1.36343L104.861 1.03143Z" fill="white"/>
<path id="Vector_22" d="M104.95 1.381L32.0095 208.624L32.4812 208.79L105.422 1.547L104.95 1.381Z" fill="white"/>
</g>
<g id="Group_3">
<path id="Vector_23" d="M248.9 177.5C248.2 177.5 247.5 176.9 247.5 176.1C247.5 175.4 248.1 174.8 248.9 174.8C249.6 174.8 250.2 175.4 250.2 176.1C250.3 176.8 249.6 177.5 248.9 177.5Z" fill="white"/>
<path id="Vector_24" d="M250 176.1C250 176.7 249.5 177.2 248.9 177.2C248.3 177.2 247.8 176.7 247.8 176.1C247.8 175.5 248.3 175 248.9 175C249.5 175 250 175.5 250 176.1Z" fill="white"/>
<path id="Vector_25" d="M235.5 51.2001C236.218 51.2001 236.8 50.6181 236.8 49.9001C236.8 49.1821 236.218 48.6001 235.5 48.6001C234.782 48.6001 234.2 49.1821 234.2 49.9001C234.2 50.6181 234.782 51.2001 235.5 51.2001Z" fill="white"/>
<path id="Vector_26" d="M236.6 49.9003C236.6 50.5003 236.1 51.0003 235.5 51.0003C234.9 51.0003 234.4 50.5003 234.4 49.9003C234.4 49.3003 234.9 48.8003 235.5 48.8003C236.1 48.8003 236.6 49.3003 236.6 49.9003Z" fill="white"/>
<path id="Vector_27" d="M105 3.0002C105.773 3.0002 106.4 2.37339 106.4 1.6002C106.4 0.826997 105.773 0.200195 105 0.200195C104.227 0.200195 103.6 0.826997 103.6 1.6002C103.6 2.37339 104.227 3.0002 105 3.0002Z" fill="white"/>
<path id="Vector_28" d="M106.1 1.6C106.1 2.2 105.6 2.7 105 2.7C104.4 2.7 103.9 2.2 103.9 1.6C103.9 1 104.4 0.5 105 0.5C105.6 0.5 106.1 1 106.1 1.6Z" fill="white"/>
<path id="Vector_29" d="M11.4 67.0003C10.7 67.0003 10 66.4003 10 65.7003C10 65.0003 10.6 64.3003 11.4 64.3003C12.2 64.3003 12.8 64.9003 12.8 65.7003C12.8 66.4003 12.1 67.0003 11.4 67.0003Z" fill="white"/>
<path id="Vector_30" d="M12.5 65.7001C12.5 66.3001 12 66.8001 11.4 66.8001C10.8 66.8001 10.3 66.3001 10.3 65.7001C10.3 65.1001 10.8 64.6001 11.4 64.6001C12 64.6001 12.5 65.1001 12.5 65.7001Z" fill="white"/>
<path id="Vector_31" d="M1.4 120.5C2.1732 120.5 2.8 119.873 2.8 119.1C2.8 118.327 2.1732 117.7 1.4 117.7C0.626801 117.7 0 118.327 0 119.1C0 119.873 0.626801 120.5 1.4 120.5Z" fill="white"/>
<path id="Vector_32" d="M1.40005 120.2C2.00756 120.2 2.50005 119.708 2.50005 119.1C2.50005 118.492 2.00756 118 1.40005 118C0.792535 118 0.300049 118.492 0.300049 119.1C0.300049 119.708 0.792535 120.2 1.40005 120.2Z" fill="white"/>
<path id="Vector_33" d="M32.5 210C31.8 210 31.1 209.4 31.1 208.7C31.1 208 31.7 207.3 32.5 207.3C33.3 207.3 33.9 207.9 33.9 208.7C33.9 209.4 33.2 210 32.5 210Z" fill="white"/>
<path id="Vector_34" d="M33.6 208.7C33.6 209.3 33.1 209.8 32.5 209.8C31.9 209.8 31.4 209.3 31.4 208.7C31.4 208.1 31.9 207.6 32.5 207.6C33.1 207.6 33.6 208.1 33.6 208.7Z" fill="white"/>
</g>
</g>
</g>
<defs>
<clipPath id="clip0_120_78">
<rect width="250" height="250" fill="white"/>
</clipPath>
</defs>
</svg>
