<svg width="250" height="250" viewBox="0 0 250 250" fill="none" xmlns="http://www.w3.org/2000/svg">
<g id="5 779700">
<g id="Group">
<g id="Group_2">
<path id="Vector" d="M155.2 244.701L155.1 244.601L155 244.601L93.1001 205.801L61.8001 220.701L61.8001 220.901L61.6001 220.801L61.3001 220.901L61.3001 220.701L32.5001 209.501L32.4001 209.501L32.4001 168.201L90.6001 5.40068L90.8001 5.40068L91.0001 5.20068L91.8001 6.10069L91.7001 5.50068L92.4001 5.50068L92.8001 7.00068L157.3 79.1007L214.3 38.6007L214.5 38.8007L214.7 38.8007L217.8 147.101L217.7 147.101L139.5 184.001L155.2 243.401L218.2 146.601L218.9 146.901L155.2 244.701ZM216.9 145.901L213.8 40.0007L169.4 92.8007L216.9 145.901ZM216.6 146.701L169 93.5007L128.3 141.801L132.2 156.401L216.6 146.701ZM215.2 147.401L132.3 157.001L139.2 183.301L215.2 147.401ZM210.2 42.4007L157.6 79.8007L163.3 86.3007L210.2 42.4007ZM210.2 43.4007L164 86.7007L169 92.3007L210.2 43.4007ZM168.5 92.9007L163.5 87.2007L123.8 124.401L128.1 140.901L168.5 92.9007ZM163.1 86.7007L157.2 80.1007L119.2 107.101L123.5 123.601L163.1 86.7007ZM156.6 79.7007L93.1001 8.80069L118.9 106.501L156.6 79.7007ZM154.5 243.501L138.8 184.401L94.0001 205.501L154.5 243.501ZM138.7 183.701L131.7 157.201L113.6 159.301L81.4001 197.501L93.3001 205.001L138.7 183.701ZM131.4 156.501L127.7 142.401L114.2 158.401L131.4 156.501ZM127.5 141.501L123.1 124.901L83.6001 162.001L113.1 158.601L127.5 141.501ZM122.9 124.201L118.6 107.601L72.9001 140.001L69.7001 163.501L82.5001 162.001L122.9 124.201ZM118.4 106.901L92.2001 7.60069L91.2001 6.50068L73.0001 139.201L118.4 106.901ZM112.7 159.301L82.9001 162.701L67.9001 176.701L66.3001 188.101L80.7001 197.201L112.7 159.301ZM92.6001 205.401L80.9001 198.001L62.9001 219.501L92.6001 205.401ZM90.1001 8.80069L33.4001 167.201L72.3001 139.601L90.1001 8.80069ZM81.6001 162.901L69.5001 164.301L68.0001 175.601L81.6001 162.901ZM80.3001 197.701L66.2001 188.901L62.1001 219.401L80.3001 197.701ZM72.1001 140.601L33.9001 167.701L68.8001 163.601L72.1001 140.601ZM68.9001 164.401L34.8001 168.301L59.5001 183.801L67.3001 176.501L68.9001 164.401ZM67.1001 177.501L60.0001 184.201L65.7001 187.701L67.1001 177.501ZM65.6001 188.401L59.5001 184.601L33.4001 209.101L61.3001 220.001L65.6001 188.401ZM58.9001 184.201L33.8001 168.401L33.0001 168.501L33.0001 208.401L58.9001 184.201Z" fill="white"/>
<path id="Vector_2" d="M92.1001 5.80029L91.9001 5.80029L92.2001 7.00029L90.9001 5.60029L90.8001 5.70028L90.7001 5.70028L32.6001 168.2L32.6001 209.2L32.7001 209.2L32.7001 209.3L61.5001 220.5L93.2001 205.5L155 244.3L155.1 244.2L155.2 244.3L218.5 147L218.3 146.9L155.1 244L139.2 183.9L217.4 147L217.4 146.9L217.5 146.9L214.4 39.1003L214.3 39.1003L214.2 39.0003L157.2 79.5003L92.5001 7.20028L92.1001 5.80029ZM66.1001 188.2L67.7001 176.6L82.8001 162.5L113.3 159L80.8001 197.5L66.1001 188.2ZM80.7001 197.6L61.7001 220.1L66.0001 188.4L80.7001 197.6ZM32.9001 167.9L90.7001 6.50029L72.5001 139.8L32.9001 167.9ZM72.4001 140.1L69.1001 163.9L33.0001 168.1L72.4001 140.1ZM34.0001 168.1L34.0001 168.3L59.3001 184.2L32.8001 209L32.8001 168.3L34.0001 168.1ZM34.1001 168.1L69.2001 164.1L67.5001 176.6L59.5001 184.1L34.1001 168.1ZM69.3001 164.1L82.3001 162.6L67.7001 176.3L69.3001 164.1ZM67.4001 176.8L65.9001 188.1L59.6001 184.2L67.4001 176.8ZM82.9001 162.3L123.3 124.5L127.8 141.6L113.3 158.8L82.9001 162.3ZM113.5 159L131.9 156.9L139 183.8L93.3001 205.3L81.0001 197.6L113.5 159ZM113.6 158.8L127.8 141.9L131.7 156.7L113.6 158.8ZM128 141.7L169 93.1003L217.1 146.9L132 156.6L128 141.7ZM169.1 92.9003L214.1 39.4003L217.2 146.6L169.1 92.9003ZM169 92.7003L163.6 86.7003L213.1 40.3003L169 92.7003ZM168.8 92.9003L128 141.4L123.5 124.3L163.5 86.8003L168.8 92.9003ZM123.4 124.1L118.9 107L157.2 79.8003L163.4 86.7003L123.4 124.1ZM123.2 124.3L82.6001 162.3L69.4001 163.8L72.7001 139.9L118.8 107.2L123.2 124.3ZM72.7001 139.7L91.0001 5.90028L92.4001 7.50029L118.7 107L72.7001 139.7ZM32.9001 209.2L59.5001 184.3L65.9001 188.3L61.5001 220.3L32.9001 209.2ZM61.9001 220.2L80.8001 197.7L93.1001 205.4L61.9001 220.2ZM154.9 244L93.5001 205.5L139 184L154.9 244ZM132 156.8L216.7 147L139.1 183.7L132 156.8ZM213.1 40.0003L163.4 86.6003L157.3 79.7003L213.1 40.0003ZM157 79.7003L118.8 106.9L92.6001 7.80029L157 79.7003Z" fill="white"/>
<g id="Group_3">
<path id="Vector_3" d="M215.3 39.6005C215.3 40.3005 214.7 41.0005 214 41.0005C213.3 41.0005 212.7 40.4005 212.7 39.6005C212.7 38.9005 213.3 38.3005 214 38.3005C214.7 38.3005 215.3 38.9005 215.3 39.6005Z" fill="white"/>
<path id="Vector_4" d="M214 38.5007C214.6 38.5007 215.1 39.0007 215.1 39.6007C215.1 40.2007 214.6 40.7007 214 40.7007C213.4 40.7007 212.9 40.2007 212.9 39.6007C212.9 39.0007 213.4 38.5007 214 38.5007Z" fill="white"/>
<path id="Vector_5" d="M92.3 5.80069C92.3 6.50069 91.7 7.20068 90.9 7.20068C90.1 7.20068 89.5 6.60069 89.5 5.80069C89.5 5.10069 90.1 4.50069 90.9 4.50069C91.7 4.50069 92.3 5.10069 92.3 5.80069Z" fill="white"/>
<path id="Vector_6" d="M90.9 4.70039C91.5 4.70039 92 5.2004 92 5.8004C92 6.4004 91.5 6.90039 90.9 6.90039C90.3 6.90039 89.8 6.4004 89.8 5.8004C89.8 5.2004 90.3 4.70039 90.9 4.70039Z" fill="white"/>
<path id="Vector_7" d="M34.3 168.2C34.3 168.9 33.7 169.5 32.9 169.5C32.1 169.5 31.5 168.9 31.5 168.2C31.5 167.5 32.1 166.8 32.9 166.8C33.7 166.8 34.3 167.5 34.3 168.2Z" fill="white"/>
<path id="Vector_8" d="M32.9001 167.1C33.5001 167.1 34 167.6 34 168.2C34 168.8 33.5001 169.3 32.9001 169.3C32.3001 169.3 31.8 168.8 31.8 168.2C31.8 167.6 32.3001 167.1 32.9001 167.1Z" fill="white"/>
<path id="Vector_9" d="M63 220.4C63 219.627 62.3731 219 61.5999 219C60.8268 219 60.2 219.627 60.2 220.4C60.2 221.173 60.8268 221.8 61.5999 221.8C62.3731 221.8 63 221.173 63 220.4Z" fill="white"/>
<path id="Vector_10" d="M61.6 219.3C62.2 219.3 62.7 219.8 62.7 220.4C62.7 221 62.2 221.5 61.6 221.5C61 221.5 60.5 221 60.5 220.4C60.5 219.8 61 219.3 61.6 219.3Z" fill="white"/>
<path id="Vector_11" d="M156.3 244.2C156.3 244.9 155.7 245.5 155 245.5C154.3 245.5 153.7 244.9 153.7 244.2C153.7 243.5 154.3 242.8 155 242.8C155.7 242.8 156.3 243.5 156.3 244.2Z" fill="white"/>
<path id="Vector_12" d="M155 243.1C155.6 243.1 156.1 243.6 156.1 244.2C156.1 244.8 155.6 245.3 155 245.3C154.4 245.3 153.9 244.8 153.9 244.2C153.9 243.6 154.4 243.1 155 243.1Z" fill="white"/>
<path id="Vector_13" d="M34 209.2C34 209.9 33.4001 210.5 32.7001 210.5C32.0001 210.5 31.3 209.9 31.3 209.2C31.3 208.5 31.9001 207.8 32.7001 207.8C33.4001 207.9 34 208.5 34 209.2Z" fill="white"/>
<path id="Vector_14" d="M32.7001 208.1C33.3001 208.1 33.8001 208.6 33.8001 209.2C33.8001 209.8 33.3001 210.3 32.7001 210.3C32.1001 210.3 31.6001 209.8 31.6001 209.2C31.6001 208.6 32.1001 208.1 32.7001 208.1Z" fill="white"/>
<path id="Vector_15" d="M218.5 146.9C218.5 147.6 217.9 148.3 217.2 148.3C216.5 148.3 215.8 147.7 215.8 146.9C215.8 146.1 216.4 145.5 217.2 145.5C217.9 145.5 218.5 146.2 218.5 146.9Z" fill="white"/>
<path id="Vector_16" d="M217.2 145.8C217.8 145.8 218.3 146.3 218.3 146.9C218.3 147.5 217.8 148 217.2 148C216.6 148 216.1 147.5 216.1 146.9C216.1 146.3 216.6 145.8 217.2 145.8Z" fill="white"/>
</g>
</g>
</g>
</g>
</svg>
