<svg width="250" height="250" viewBox="0 0 250 250" fill="none" xmlns="http://www.w3.org/2000/svg">
<g id="2 3" clip-path="url(#clip0_120_59)">
<g id="Group">
<path id="Vector" d="M48.9 215.1L0.800003 149.5L0.900003 149.4L0.800003 149.3L39.8 113.2L33.3 39.5002H33.4V39.4002L81.1 32.5002L161.5 0.900195L161.6 0.800195L161.7 0.700195V0.900195L212.9 43.6002L212.7 43.8002V43.9002L212.6 44.1002L168.9 66.0002L250.5 119.9L250 120.4L249.3 119.9V120L211.3 179.1V179.2L49.1 215.2L48.9 215.1ZM49.4 214.2L177.7 153.2L106.2 97.0002L41.8 129.3L49.4 214.2ZM51.9 213.8L210.1 178.7L178.2 153.7L51.9 213.8ZM48.6 213.5L41.2 129.7L1.7 149.4L48.6 213.5ZM210.9 178.3L247.9 120.6L179.1 153.4L210.9 178.3ZM178.5 152.9L248.7 119.5L168.1 66.3002L107.1 96.9002L178.5 152.9ZM3.2 148L41.2 129L39.8 114L3.2 148ZM41.8 128.6L105.7 96.6002L80.2 76.6002L40.4 113.4L41.8 128.6ZM40.4 112.6L79.7 76.2002L34 40.4002L40.4 112.6ZM106.4 96.3002L167.4 65.8002L123.4 36.7002L80.8 76.2002L106.4 96.3002ZM80.2 75.8002L122.6 36.6002L81.1 33.1002L34.4 39.8002L80.2 75.8002ZM168.1 65.5002L211.1 44.0002L124.7 36.8002L168.1 65.5002ZM211.3 43.3002L161.5 1.6002L124.2 36.0002L211.3 43.3002ZM123.3 35.9002L160 2.1002L82.6 32.5002L123.3 35.9002Z" fill="white"/>
<path id="Vector_2" d="M168.1 66.0001L249.9 120L250 119.9L168.3 65.9001L212.4 43.8001V43.7001L212.5 43.6001L161.5 1.1001L161.4 1.2001V1.1001L81.1 32.7001L33.6 39.6001V39.7001H33.5L40 113.3L1.09999 149.3L1.19999 149.4L1.09999 149.5L49 214.8L49.1 214.7V214.8L211 178.9V178.8H211.1L249 119.8H248.9V119.7L178.5 153.2L106.6 96.8001L168.1 66.0001ZM106.4 96.6001L80.4 76.2001L123.4 36.4001L167.9 65.8001L106.4 96.6001ZM106.2 96.7001L41.6 129L40.2 113.3L80.2 76.3001L106.2 96.7001ZM123.4 36.2001L81.5 32.7001L161.1 1.4001L123.4 36.2001ZM161.5 1.3001L212.1 43.6001L123.6 36.2001L161.5 1.3001ZM123.2 36.4001L80.2 76.1001L33.8 39.7001L81.1 32.9001L123.2 36.4001ZM123.7 36.4001L212 43.8001L168.1 65.8001L123.7 36.4001ZM33.7 39.8001L80.1 76.2001L40.2 113.1L33.7 39.8001ZM41.4 129.1L1.69999 149L40 113.5L41.4 129.1ZM41.4 129.3L48.9 214.4L1.29999 149.3L41.4 129.3ZM49.8 214.5L178.3 153.4L210.7 178.8L49.8 214.5ZM248.6 120L211 178.7L178.6 153.3L248.6 120ZM178.2 153.3L49.2 214.6L41.6 129.2L106.3 96.8001L178.2 153.3Z" fill="white"/>
<g id="Group_2">
<path id="Vector_3" d="M212.1 45.1002C211.3 45.1002 210.7 44.4002 210.7 43.7002C210.7 42.9002 211.4 42.2002 212.1 42.2002C212.9 42.2002 213.6 42.9002 213.6 43.7002C213.5 44.5002 212.9 45.1002 212.1 45.1002Z" fill="white"/>
<path id="Vector_4" d="M212.1 44.9C212.763 44.9 213.3 44.3627 213.3 43.7C213.3 43.0373 212.763 42.5 212.1 42.5C211.437 42.5 210.9 43.0373 210.9 43.7C210.9 44.3627 211.437 44.9 212.1 44.9Z" fill="white"/>
<path id="Vector_5" d="M161.4 2.6002C160.7 2.6002 159.9 2.0002 159.9 1.2002C159.9 0.500195 160.5 -0.299805 161.4 -0.299805C162.2 -0.299805 162.8 0.300195 162.8 1.2002C162.8 1.9002 162.3 2.6002 161.4 2.6002Z" fill="white"/>
<path id="Vector_6" d="M162.6 1.2C162.6 1.8 162.1 2.4 161.4 2.4C160.8 2.4 160.2 1.9 160.2 1.2C160.2 0.6 160.7 0 161.4 0C162.1 0 162.6 0.5 162.6 1.2Z" fill="white"/>
<path id="Vector_7" d="M33.6 41.0001C32.8 41.0001 32.1 40.3001 32.1 39.6001C32.1 38.8001 32.8 38.1001 33.6 38.1001C34.4 38.1001 35 38.8001 35 39.6001C35 40.4001 34.4 41.0001 33.6 41.0001Z" fill="white"/>
<path id="Vector_8" d="M33.6 40.8004C34.2627 40.8004 34.8 40.2631 34.8 39.6004C34.8 38.9376 34.2627 38.4004 33.6 38.4004C32.9372 38.4004 32.4 38.9376 32.4 39.6004C32.4 40.2631 32.9372 40.8004 33.6 40.8004Z" fill="white"/>
<path id="Vector_9" d="M1.2 150.8C0.399997 150.8 -0.300003 150.1 -0.300003 149.3C-0.300003 148.5 0.399997 147.8 1.2 147.8C2 147.8 2.6 148.5 2.6 149.3C2.6 150.1 2 150.8 1.2 150.8Z" fill="white"/>
<path id="Vector_10" d="M1.2 150.5C1.86274 150.5 2.4 149.963 2.4 149.3C2.4 148.637 1.86274 148.1 1.2 148.1C0.537258 148.1 0 148.637 0 149.3C0 149.963 0.537258 150.5 1.2 150.5Z" fill="white"/>
<path id="Vector_11" d="M49.1 216.2C48.3 216.2 47.6 215.5 47.6 214.7C47.6 213.9 48.3 213.2 49.1 213.2C49.9 213.2 50.5 213.9 50.5 214.7C50.5 215.5 49.9 216.2 49.1 216.2Z" fill="white"/>
<path id="Vector_12" d="M49.1 215.9C49.7627 215.9 50.3 215.363 50.3 214.7C50.3 214.037 49.7627 213.5 49.1 213.5C48.4372 213.5 47.9 214.037 47.9 214.7C47.9 215.363 48.4372 215.9 49.1 215.9Z" fill="white"/>
<path id="Vector_13" d="M210.9 180.3C210.2 180.3 209.4 179.7 209.4 178.8C209.4 178.1 210 177.3 210.9 177.3C211.8 177.4 212.3 178 212.3 178.8C212.3 179.5 211.8 180.3 210.9 180.3Z" fill="white"/>
<path id="Vector_14" d="M212.1 178.8C212.1 179.4 211.6 180 210.9 180C210.3 180 209.7 179.5 209.7 178.8C209.7 178.2 210.2 177.6 210.9 177.6C211.6 177.7 212.1 178.2 212.1 178.8Z" fill="white"/>
<path id="Vector_15" d="M248.8 121.3C248.1 121.3 247.3 120.7 247.3 119.8C247.3 119.1 247.9 118.4 248.8 118.4C249.7 118.4 250.3 119.1 250.3 119.8C250.3 120.5 249.7 121.3 248.8 121.3Z" fill="white"/>
<path id="Vector_16" d="M250 119.8C250 120.4 249.5 121 248.8 121C248.2 121 247.6 120.5 247.6 119.8C247.6 119.2 248.1 118.6 248.8 118.6C249.5 118.6 250 119.2 250 119.8Z" fill="white"/>
</g>
</g>
</g>
<defs>
<clipPath id="clip0_120_59">
<rect width="250" height="250" fill="white"/>
</clipPath>
</defs>
</svg>
