<svg width="56" height="56" viewBox="0 0 56 56" fill="none" xmlns="http://www.w3.org/2000/svg">
<path d="M28.0001 32.7436C27.8884 32.7426 27.7782 32.7168 27.6777 32.6679L1.94801 20.5552C1.818 20.4941 1.70807 20.3973 1.63107 20.276C1.55407 20.1547 1.51318 20.014 1.51318 19.8704C1.51318 19.7267 1.55407 19.586 1.63107 19.4648C1.70807 19.3435 1.818 19.2466 1.94801 19.1855L27.6777 7.0721C27.7786 7.02462 27.8887 7 28.0001 7C28.1116 7 28.2217 7.02462 28.3225 7.0721L54.0522 19.1855C54.1822 19.2466 54.2922 19.3435 54.3692 19.4648C54.4462 19.586 54.487 19.7267 54.487 19.8704C54.487 20.014 54.4462 20.1547 54.3692 20.276C54.2922 20.3973 54.1822 20.4941 54.0522 20.5552L28.3225 32.6679C28.222 32.7168 28.1119 32.7426 28.0001 32.7436ZM4.04725 19.8726L28.0001 31.1483L51.953 19.8726L28.0001 8.59697L4.04725 19.8726Z" fill="white"/>
<path d="M27.8296 40.305C22.0026 40.305 16.1756 38.6265 10.3886 35.2703C10.2737 35.204 10.1782 35.1086 10.1118 34.9937C10.0454 34.8788 10.0104 34.7484 10.0103 34.6157V23.8698C10.0103 23.6691 10.09 23.4766 10.2319 23.3347C10.3738 23.1928 10.5663 23.113 10.767 23.113C10.9677 23.113 11.1602 23.1928 11.3021 23.3347C11.444 23.4766 11.5238 23.6691 11.5238 23.8698V34.1768C22.3454 40.3065 33.3116 40.3065 44.1324 34.1768V24.0348C44.1324 23.8341 44.2121 23.6416 44.3541 23.4997C44.496 23.3577 44.6885 23.278 44.8892 23.278C45.0899 23.278 45.2824 23.3577 45.4243 23.4997C45.5662 23.6416 45.6459 23.8341 45.6459 24.0348V34.6173C45.6458 34.75 45.6108 34.8803 45.5443 34.9952C45.4779 35.1101 45.3825 35.2055 45.2676 35.2718C39.4844 38.6273 33.6559 40.305 27.8296 40.305Z" fill="white"/>
<path d="M49.6181 37.0599C49.4174 37.0599 49.2249 36.9802 49.083 36.8383C48.9411 36.6964 48.8613 36.5039 48.8613 36.3032V21.8083C48.8613 21.6076 48.9411 21.4151 49.083 21.2732C49.2249 21.1312 49.4174 21.0515 49.6181 21.0515C49.8188 21.0515 50.0113 21.1312 50.1532 21.2732C50.2951 21.4151 50.3748 21.6076 50.3748 21.8083V36.3032C50.3748 36.5039 50.2951 36.6964 50.1532 36.8383C50.0113 36.9802 49.8188 37.0599 49.6181 37.0599Z" fill="white"/>
<path d="M49.6181 42.1334C48.9667 42.1334 48.33 41.9403 47.7884 41.5784C47.2468 41.2165 46.8247 40.7022 46.5754 40.1004C46.3261 39.4986 46.2609 38.8364 46.388 38.1975C46.5151 37.5587 46.8287 36.9718 47.2893 36.5112C47.7499 36.0507 48.3367 35.737 48.9756 35.6099C49.6145 35.4828 50.2767 35.5481 50.8784 35.7973C51.4802 36.0466 51.9946 36.4687 52.3565 37.0103C52.7184 37.5519 52.9115 38.1887 52.9115 38.84C52.9105 39.7132 52.5632 40.5503 51.9458 41.1677C51.3284 41.7851 50.4913 42.1324 49.6181 42.1334ZM49.6181 37.0632C49.2661 37.0632 48.922 37.1676 48.6293 37.3631C48.3366 37.5587 48.1084 37.8367 47.9737 38.1619C47.839 38.4872 47.8037 38.845 47.8724 39.1903C47.9411 39.5356 48.1106 39.8527 48.3595 40.1016C48.6085 40.3506 48.9256 40.5201 49.2709 40.5888C49.6161 40.6574 49.974 40.6222 50.2992 40.4875C50.6245 40.3528 50.9025 40.1246 51.098 39.8319C51.2936 39.5392 51.398 39.1951 51.398 38.8431C51.3982 38.3707 51.2108 37.9175 50.8771 37.5832C50.5433 37.2489 50.0905 37.0607 49.6181 37.0601V37.0632Z" fill="white"/>
<path d="M49.7047 48.9374C48.5278 48.9203 47.3694 48.6414 46.3137 48.1209C46.1629 48.0497 46.0398 47.9307 45.9635 47.7823C45.8873 47.634 45.8622 47.4646 45.8922 47.3005L47.1249 40.5359C47.1408 40.4363 47.1764 40.3409 47.2296 40.2553C47.2829 40.1697 47.3527 40.0956 47.435 40.0373C47.5172 39.9791 47.6103 39.9379 47.7088 39.9161C47.8072 39.8943 47.909 39.8924 48.0082 39.9105C48.1073 39.9286 48.2019 39.9663 48.2863 40.0215C48.3707 40.0766 48.4432 40.1481 48.4996 40.2317C48.556 40.3152 48.5951 40.4092 48.6147 40.5081C48.6342 40.607 48.6338 40.7088 48.6135 40.8076L47.4889 46.9804C48.1624 47.2698 48.8871 47.4207 49.6201 47.4244C50.353 47.428 51.0793 47.2842 51.7555 47.0016L50.6272 40.8076C50.5912 40.6101 50.6351 40.4064 50.7493 40.2412C50.8634 40.0761 51.0385 39.9631 51.236 39.9271C51.4335 39.891 51.6372 39.9349 51.8024 40.0491C51.9675 40.1633 52.0805 40.3384 52.1165 40.5359L53.3493 47.3005C53.3782 47.4589 53.3558 47.6224 53.2855 47.7672C53.2151 47.912 53.1004 48.0306 52.958 48.1057C51.9588 48.6469 50.8411 48.9326 49.7047 48.9374Z" fill="white"/>
</svg>
