<svg width="56" height="56" viewBox="0 0 56 56" fill="none" xmlns="http://www.w3.org/2000/svg">
<path d="M37.0888 46.268H18.9115C18.728 46.2677 18.5509 46.2008 18.4131 46.0797C18.2753 45.9586 18.1861 45.7915 18.1623 45.6096L14.9219 20.7645C14.908 20.6578 14.917 20.5493 14.9484 20.4463C14.9798 20.3434 15.0327 20.2483 15.1038 20.1674C15.1748 20.0865 15.2623 20.0218 15.3604 19.9774C15.4585 19.933 15.5649 19.9101 15.6726 19.9102H40.3277C40.4349 19.9102 40.5409 19.933 40.6386 19.9771C40.7363 20.0212 40.8236 20.0856 40.8945 20.1659C40.9655 20.2463 41.0186 20.3408 41.0503 20.4432C41.082 20.5456 41.0916 20.6536 41.0784 20.76L39.9206 30.0938C39.911 30.1946 39.8813 30.2924 39.8332 30.3814C39.7852 30.4705 39.7198 30.549 39.6408 30.6123C39.5619 30.6756 39.4711 30.7225 39.3738 30.7501C39.2764 30.7777 39.1745 30.7855 39.0741 30.7731C38.9737 30.7606 38.8768 30.7282 38.7891 30.6776C38.7015 30.6271 38.6248 30.5594 38.5638 30.4788C38.5027 30.3981 38.4584 30.306 38.4336 30.2079C38.4088 30.1098 38.4039 30.0077 38.4191 29.9077L39.471 21.4237H16.5345L19.5759 44.7545H36.4349L36.8474 41.9545C36.8594 41.8541 36.8914 41.7572 36.9416 41.6694C36.9917 41.5817 37.0589 41.5048 37.1392 41.4434C37.2195 41.382 37.3112 41.3374 37.4091 41.312C37.5069 41.2867 37.6089 41.2812 37.7089 41.296C37.8089 41.3107 37.9049 41.3453 37.9913 41.3977C38.0777 41.4501 38.1528 41.5194 38.212 41.6013C38.2712 41.6832 38.3134 41.7761 38.3361 41.8746C38.3588 41.9731 38.3616 42.0751 38.3442 42.1747L37.838 45.6217C37.8114 45.8014 37.7212 45.9656 37.5836 46.0843C37.4461 46.2029 37.2704 46.2681 37.0888 46.268Z" fill="white"/>
<path d="M38.1952 38.2789C38.1623 38.2792 38.1295 38.2771 38.0968 38.2729C37.8979 38.247 37.7173 38.1432 37.5948 37.9843C37.4723 37.8254 37.418 37.6243 37.4438 37.4253L37.8289 34.4437C37.8547 34.2446 37.9586 34.0639 38.1176 33.9413C38.2766 33.8188 38.4778 33.7644 38.6769 33.7902C38.876 33.816 39.0567 33.9198 39.1792 34.0788C39.3018 34.2379 39.3561 34.4391 39.3304 34.6382L38.9444 37.6198C38.9207 37.8018 38.8317 37.9691 38.6938 38.0903C38.556 38.2116 38.3788 38.2786 38.1952 38.2789Z" fill="white"/>
<path d="M43.3432 28.454H39.4596C39.2588 28.454 39.0664 28.3742 38.9244 28.2323C38.7825 28.0904 38.7028 27.8979 38.7028 27.6972C38.7028 27.4965 38.7825 27.304 38.9244 27.1621C39.0664 27.0202 39.2588 26.9405 39.4596 26.9405H43.3432C43.4826 26.9412 43.6181 26.8941 43.727 26.807C43.8359 26.72 43.9117 26.5983 43.9418 26.4622L46.4073 15.5059C46.4277 15.4161 46.4275 15.323 46.407 15.2333C46.3864 15.1436 46.3459 15.0597 46.2885 14.9878C46.231 14.916 46.1582 14.8579 46.0752 14.818C45.9923 14.7781 45.9015 14.7574 45.8095 14.7574H10.1905C10.0985 14.7574 10.0076 14.7781 9.92472 14.818C9.84181 14.8579 9.76894 14.916 9.71152 14.9878C9.65409 15.0597 9.61359 15.1436 9.59301 15.2333C9.57243 15.323 9.5723 15.4161 9.59263 15.5059L12.0581 26.4652C12.0882 26.6013 12.1641 26.7231 12.273 26.8101C12.3819 26.8971 12.5173 26.9442 12.6567 26.9435H16.5404C16.7411 26.9435 16.9336 27.0232 17.0755 27.1651C17.2174 27.3071 17.2972 27.4995 17.2972 27.7002C17.2972 27.901 17.2174 28.0934 17.0755 28.2354C16.9336 28.3773 16.7411 28.457 16.5404 28.457H12.6567C12.1733 28.4593 11.7036 28.2959 11.326 27.9939C10.9484 27.6919 10.6857 27.2696 10.5817 26.7974L8.1162 15.8381C8.04592 15.5269 8.04657 15.2038 8.1181 14.8929C8.18963 14.582 8.33021 14.2911 8.52942 14.0419C8.72864 13.7927 8.98138 13.5915 9.26892 13.4532C9.55645 13.315 9.87142 13.2432 10.1905 13.2432H45.8095C46.1285 13.2432 46.4434 13.315 46.7308 13.4532C47.0183 13.5914 47.271 13.7925 47.4702 14.0417C47.6694 14.2908 47.81 14.5815 47.8816 14.8924C47.9532 15.2032 47.9539 15.5262 47.8838 15.8373L45.4183 26.7974C45.3137 27.2691 45.0507 27.6906 44.6732 27.992C44.2957 28.2934 43.8263 28.4564 43.3432 28.454Z" fill="white"/>
<path d="M28 37.3626C27.0375 37.3626 26.0966 37.0771 25.2963 36.5424C24.496 36.0077 23.8722 35.2477 23.5038 34.3584C23.1355 33.4692 23.039 32.4907 23.2268 31.5467C23.4145 30.6027 23.8779 29.7355 24.5585 29.0548C25.239 28.3742 26.1061 27.9106 27.0501 27.7228C27.9941 27.5349 28.9726 27.6312 29.8619 27.9994C30.7512 28.3676 31.5113 28.9913 32.0462 29.7915C32.581 30.5917 32.8666 31.5326 32.8667 32.4951C32.8653 33.7855 32.3521 35.0226 31.4398 35.9351C30.5274 36.8476 29.2904 37.361 28 37.3626ZM28 29.1427C27.3368 29.1427 26.6884 29.3393 26.137 29.7078C25.5856 30.0763 25.1558 30.6001 24.902 31.2128C24.6482 31.8256 24.5819 32.4998 24.7113 33.1503C24.8407 33.8008 25.1602 34.3983 25.6292 34.8672C26.0982 35.3361 26.6958 35.6554 27.3463 35.7847C27.9968 35.914 28.671 35.8475 29.2837 35.5936C29.8964 35.3397 30.4201 34.9098 30.7884 34.3582C31.1568 33.8067 31.3533 33.1583 31.3532 32.4951C31.352 31.6062 30.9983 30.7541 30.3697 30.1256C29.7411 29.4972 28.8889 29.1437 28 29.1427Z" fill="white"/>
<path d="M41.0162 50.3766H14.9838C14.7831 50.3766 14.5906 50.2969 14.4487 50.155C14.3068 50.0131 14.2271 49.8206 14.2271 49.6199V45.5099C14.2271 45.3092 14.3068 45.1167 14.4487 44.9748C14.5906 44.8329 14.7831 44.7532 14.9838 44.7532H41.0162C41.2169 44.7532 41.4094 44.8329 41.5513 44.9748C41.6933 45.1167 41.773 45.3092 41.773 45.5099V49.6199C41.773 49.8206 41.6933 50.0131 41.5513 50.155C41.4094 50.2969 41.2169 50.3766 41.0162 50.3766ZM15.7406 48.8631H40.2595V46.2667H15.7406V48.8631Z" fill="white"/>
<path d="M44.4395 54.4865H11.56C11.3593 54.4865 11.1668 54.4068 11.0249 54.2648C10.883 54.1229 10.8032 53.9304 10.8032 53.7297V49.6198C10.8032 49.4191 10.883 49.2266 11.0249 49.0847C11.1668 48.9428 11.3593 48.863 11.56 48.863H44.4395C44.6403 48.863 44.8327 48.9428 44.9747 49.0847C45.1166 49.2266 45.1963 49.4191 45.1963 49.6198V53.7297C45.1963 53.9304 45.1166 54.1229 44.9747 54.2648C44.8327 54.4068 44.6403 54.4865 44.4395 54.4865ZM12.3167 52.973H43.6828V50.3766H12.3167V52.973Z" fill="white"/>
<path d="M41.493 14.7568C41.2923 14.7568 41.0998 14.6771 40.9579 14.5351C40.816 14.3932 40.7363 14.2007 40.7363 14V10.8784C40.7376 10.4021 40.5956 9.9365 40.3286 9.54211C40.0616 9.14771 39.6821 8.84283 39.2394 8.66716L35.0015 6.96824C34.8152 6.89368 34.6661 6.74814 34.587 6.56365C34.508 6.37915 34.5055 6.17081 34.58 5.98446C34.6546 5.7981 34.8001 5.649 34.9846 5.56995C35.1691 5.4909 35.3775 5.48838 35.5638 5.56294L39.8054 7.26489C40.5295 7.55215 41.1503 8.05078 41.5869 8.69583C42.0236 9.34089 42.2559 10.1025 42.2535 10.8814V14C42.2535 14.0997 42.2338 14.1984 42.1956 14.2905C42.1573 14.3826 42.1012 14.4662 42.0306 14.5365C41.9599 14.6068 41.876 14.6625 41.7838 14.7003C41.6915 14.7381 41.5927 14.7573 41.493 14.7568Z" fill="white"/>
<path d="M34.0157 8.92971C33.826 8.92972 33.638 8.89377 33.4617 8.82376L28.9772 7.04993C28.606 6.9026 28.3084 6.61408 28.1497 6.24764C27.9909 5.88121 27.984 5.46677 28.1304 5.09522L29.1717 2.46549C29.2445 2.28158 29.3528 2.1138 29.4904 1.97175C29.628 1.82969 29.7923 1.71614 29.9738 1.63758C30.1553 1.55901 30.3505 1.51697 30.5483 1.51386C30.746 1.51075 30.9425 1.54662 31.1264 1.61944L35.6109 3.39403C35.9812 3.5425 36.2779 3.83113 36.4364 4.19718C36.595 4.56323 36.6027 4.97708 36.4577 5.34874L35.4164 7.97847C35.3052 8.25917 35.1122 8.49997 34.8624 8.6696C34.6126 8.83922 34.3176 8.92985 34.0157 8.92971ZM30.5732 3.02701L29.5379 5.6522L34.0187 7.4162L35.0502 4.79101L30.5732 3.02701Z" fill="white"/>
</svg>
