<svg width="56" height="56" viewBox="0 0 56 56" fill="none" xmlns="http://www.w3.org/2000/svg">
<path d="M50.4002 27.6443C50.2922 27.6445 50.1855 27.6216 50.0872 27.5771C49.9888 27.5327 49.9011 27.4677 49.83 27.3866C49.7588 27.3054 49.7058 27.21 49.6745 27.1067C49.6433 27.0034 49.6345 26.8946 49.6487 26.7876L49.9514 24.5098C49.9819 24.3144 50.0877 24.1386 50.2461 24.0202C50.4045 23.9018 50.603 23.8501 50.7991 23.8763C50.9951 23.9024 51.1732 24.0042 51.2951 24.16C51.417 24.3157 51.473 24.513 51.4513 24.7096L51.1486 26.9874C51.1244 27.1689 51.0353 27.3355 50.8977 27.4563C50.76 27.5771 50.5833 27.6439 50.4002 27.6443Z" fill="white"/>
<path d="M47.7513 47.774C47.637 47.7742 47.5242 47.7483 47.4214 47.6983L27.67 38.1329C27.5806 38.0896 27.5005 38.0291 27.4345 37.9548C27.3684 37.8806 27.3177 37.794 27.2851 37.7002C27.2524 37.6063 27.2387 37.5069 27.2445 37.4077C27.2503 37.3085 27.2755 37.2114 27.3189 37.1219C27.3622 37.0325 27.4227 36.9524 27.497 36.8864C27.5712 36.8203 27.6578 36.7696 27.7517 36.737C27.8455 36.7044 27.9449 36.6906 28.0441 36.6964C28.1434 36.7022 28.2405 36.7275 28.3299 36.7708L47.1368 45.8791L47.945 39.7252C47.9662 39.533 48.06 39.3562 48.2074 39.2311C48.3547 39.1059 48.5444 39.0419 48.7374 39.0522C48.9305 39.0625 49.1123 39.1462 49.2455 39.2863C49.3788 39.4263 49.4534 39.6121 49.454 39.8054C49.454 39.8408 49.4518 39.8762 49.4472 39.9113L48.5013 47.1156C48.4774 47.2977 48.3882 47.4648 48.2502 47.586C48.1122 47.7071 47.9349 47.7739 47.7513 47.774Z" fill="white"/>
<path d="M49.4096 35.212C49.377 35.212 49.3444 35.2097 49.312 35.2052C49.113 35.1792 48.9325 35.0752 48.8102 34.9161C48.6878 34.757 48.6337 34.5558 48.6597 34.3569L48.9473 32.132C48.9729 31.9329 49.0767 31.7521 49.2356 31.6295C49.3946 31.5069 49.5957 31.4525 49.7948 31.4782C49.9939 31.5038 50.1747 31.6076 50.2973 31.7665C50.4199 31.9255 50.4744 32.1266 50.4487 32.3257L50.1611 34.5506C50.1379 34.7334 50.0487 34.9015 49.9104 35.0233C49.772 35.1451 49.5939 35.2122 49.4096 35.212Z" fill="white"/>
<path d="M19.4488 34.3718C19.3717 34.3715 19.2951 34.3592 19.2218 34.3355L2.12667 28.8566C1.98368 28.8107 1.85757 28.7233 1.76439 28.6055C1.67121 28.4878 1.61517 28.345 1.6034 28.1953C1.59164 28.0455 1.62468 27.8957 1.69832 27.7649C1.77196 27.634 1.88287 27.528 2.01694 27.4603L53.3054 1.59439C53.4283 1.53233 53.5658 1.50499 53.7031 1.51531C53.8404 1.52563 53.9723 1.57321 54.0846 1.65293C54.1968 1.73265 54.2852 1.84149 54.3402 1.96773C54.3952 2.09396 54.4147 2.23281 54.3966 2.36931L52.1566 19.3585C52.1303 19.5575 52.0261 19.7379 51.8668 19.86C51.7074 19.9821 51.5062 20.036 51.3072 20.0097C51.1082 19.9834 50.9278 19.8791 50.8056 19.7198C50.6835 19.5605 50.6297 19.3592 50.656 19.1602L52.709 3.59071L4.34473 27.9795L19.6804 32.8984C19.8494 32.9556 19.9927 33.0707 20.085 33.2234C20.1774 33.376 20.2128 33.5564 20.1851 33.7326C20.1574 33.9089 20.0684 34.0696 19.9336 34.1866C19.7989 34.3035 19.6272 34.3691 19.4488 34.3718Z" fill="white"/>
<path d="M23.997 54.479H23.9894C23.819 54.4774 23.654 54.4183 23.5214 54.3113C23.3887 54.2043 23.296 54.0557 23.2584 53.8894L18.711 33.7824C18.6816 33.6523 18.6871 33.5167 18.727 33.3894C18.7668 33.2621 18.8397 33.1475 18.938 33.0574L53.1359 1.71258C53.2741 1.58482 53.4549 1.51313 53.6431 1.5115C53.8312 1.50987 54.0133 1.57842 54.1537 1.70376C54.294 1.8291 54.3827 2.00225 54.4023 2.18942C54.4219 2.37658 54.371 2.56434 54.2597 2.71604L28.6994 37.7773L24.7318 53.9031C24.6913 54.0674 24.597 54.2134 24.4638 54.3178C24.3306 54.4222 24.1662 54.479 23.997 54.479ZM20.2813 33.8763L24.025 50.4288L27.2624 37.2711C27.2857 37.1755 27.3276 37.0856 27.3857 37.0062L48.5666 7.94674L20.2813 33.8763Z" fill="white"/>
<path d="M23.999 54.4865C23.8558 54.4865 23.7156 54.4459 23.5946 54.3694C23.4736 54.2929 23.3768 54.1836 23.3154 54.0543C23.2539 53.925 23.2305 53.7809 23.2477 53.6388C23.2649 53.4967 23.322 53.3624 23.4125 53.2514L34.0828 40.1633C34.2096 40.0077 34.3931 39.9088 34.5928 39.8884C34.7926 39.8681 34.9922 39.9279 35.1479 40.0547C35.3035 40.1816 35.4024 40.3651 35.4228 40.5648C35.4431 40.7646 35.3833 40.9642 35.2565 41.1199L24.5862 54.2118C24.5148 54.2982 24.4251 54.3677 24.3235 54.4152C24.2219 54.4627 24.1111 54.487 23.999 54.4865Z" fill="white"/>
</svg>
