<svg width="64" height="64" viewBox="0 0 64 64" fill="none" xmlns="http://www.w3.org/2000/svg">
<path d="M61.4053 52.5526C41.9294 52.5526 26.0859 43.3296 26.0859 31.9999C26.0859 20.6702 41.9294 11.4473 61.4053 11.4473C61.6347 11.4473 61.8547 11.5384 62.0168 11.7006C62.179 11.8628 62.2702 12.0828 62.2702 12.3121C62.2702 12.5415 62.179 12.7615 62.0168 12.9237C61.8547 13.0859 61.6347 13.177 61.4053 13.177C42.8842 13.177 27.8157 21.6215 27.8157 31.9999C27.8157 42.3783 42.8842 50.8228 61.4053 50.8228C61.6347 50.8228 61.8547 50.9139 62.0168 51.0761C62.179 51.2383 62.2702 51.4583 62.2702 51.6877C62.2702 51.9171 62.179 52.137 62.0168 52.2992C61.8547 52.4614 61.6347 52.5526 61.4053 52.5526Z" fill="white"/>
<path d="M2.5946 50.5789C2.36522 50.5789 2.14524 50.4878 1.98305 50.3256C1.82086 50.1634 1.72974 49.9435 1.72974 49.7141C1.72974 49.4847 1.82086 49.2647 1.98305 49.1025C2.14524 48.9403 2.36522 48.8492 2.5946 48.8492C15.5485 48.8492 26.0861 41.2903 26.0861 31.9999C26.0861 22.7095 15.5485 15.1506 2.5946 15.1506C2.36522 15.1506 2.14524 15.0595 1.98305 14.8973C1.82086 14.7351 1.72974 14.5151 1.72974 14.2858C1.72974 14.0564 1.82086 13.8364 1.98305 13.6742C2.14524 13.512 2.36522 13.4209 2.5946 13.4209C16.5016 13.4209 27.8158 21.7556 27.8158 31.9999C27.8158 42.2442 16.5016 50.5789 2.5946 50.5789Z" fill="white"/>
<path d="M55.9767 18.6059C55.8057 18.6059 55.6385 18.5551 55.4963 18.4601C55.3542 18.3651 55.2433 18.23 55.1779 18.072C55.1124 17.914 55.0953 17.7401 55.1287 17.5724C55.162 17.4046 55.2444 17.2505 55.3653 17.1296L60.1826 12.3123L55.3653 7.49499C55.2077 7.33188 55.1206 7.11341 55.1225 6.88665C55.1245 6.65988 55.2155 6.44296 55.3758 6.28261C55.5362 6.12226 55.7531 6.0313 55.9799 6.02933C56.2066 6.02736 56.4251 6.11453 56.5882 6.27207L62.017 11.7008C62.1791 11.863 62.2702 12.083 62.2702 12.3123C62.2702 12.5416 62.1791 12.7616 62.017 12.9238L56.5882 18.3525C56.426 18.5147 56.2061 18.6059 55.9767 18.6059Z" fill="white"/>
<path d="M55.9767 57.9814C55.8057 57.9814 55.6385 57.9306 55.4963 57.8356C55.3542 57.7406 55.2433 57.6055 55.1779 57.4475C55.1124 57.2895 55.0953 57.1156 55.1287 56.9479C55.162 56.7801 55.2444 56.626 55.3653 56.5051L60.1826 51.6878L55.3653 46.8705C55.2077 46.7074 55.1206 46.4889 55.1225 46.2621C55.1245 46.0354 55.2155 45.8185 55.3758 45.6581C55.5362 45.4977 55.7531 45.4068 55.9799 45.4048C56.2066 45.4028 56.4251 45.49 56.5882 45.6476L62.017 51.0763C62.1791 51.2385 62.2702 51.4584 62.2702 51.6878C62.2702 51.9171 62.1791 52.1371 62.017 52.2992L56.5882 57.728C56.426 57.8902 56.2061 57.9814 55.9767 57.9814Z" fill="white"/>
</svg>
