<svg width="48" height="48" viewBox="0 0 48 48" fill="none" xmlns="http://www.w3.org/2000/svg">
<g id="chess 1">
<g id="g153">
<g id="g155">
<g id="Clip path group">
<mask id="mask0_120_277" style="mask-type:luminance" maskUnits="userSpaceOnUse" x="0" y="0" width="48" height="48">
<g id="clipPath161">
<path id="path159" d="M0 3.8147e-06H48V48H0V3.8147e-06Z" fill="white"/>
</g>
</mask>
<g mask="url(#mask0_120_277)">
<g id="g157">
<g id="g163">
<path id="path165 (Stroke)" fill-rule="evenodd" clip-rule="evenodd" d="M12.2987 25.0571C12.4688 24.8207 12.4151 24.4912 12.1787 24.3211C10.7693 23.3069 9.85364 21.654 9.85364 19.786C9.85364 19.0527 9.99506 18.3532 10.251 17.713C10.3591 17.4425 10.2275 17.1357 9.95703 17.0276C9.68659 16.9195 9.37973 17.0511 9.27162 17.3215C8.9669 18.0838 8.79895 18.9161 8.79895 19.786C8.79895 22.0074 9.88951 23.9732 11.5627 25.1771C11.7991 25.3473 12.1286 25.2935 12.2987 25.0571Z" fill="white"/>
</g>
<g id="g167">
<path id="path169 (Stroke)" fill-rule="evenodd" clip-rule="evenodd" d="M18.5761 25.057C18.7462 25.2934 19.0757 25.3471 19.3121 25.177C20.9853 23.9731 22.0758 22.0072 22.0758 19.7859C22.0758 16.1196 19.1032 13.147 15.4369 13.147C13.7355 13.147 12.1825 13.788 11.0086 14.8408C10.7918 15.0352 10.7736 15.3686 10.9681 15.5854C11.1625 15.8023 11.4959 15.8204 11.7127 15.626C12.7007 14.74 14.0052 14.2016 15.4369 14.2016C18.5207 14.2016 21.0211 16.7021 21.0211 19.7859C21.0211 21.6539 20.1054 23.3068 18.6961 24.3209C18.4597 24.4911 18.4059 24.8206 18.5761 25.057Z" fill="white"/>
</g>
<g id="g171">
<path id="path173 (Stroke)" fill-rule="evenodd" clip-rule="evenodd" d="M3.61633 47.2958C3.61633 47.587 3.85243 47.8231 4.14368 47.8231H26.731C27.0222 47.8231 27.2583 47.587 27.2583 47.2958C27.2583 47.0045 27.0222 46.7684 26.731 46.7684H4.67102V42.9207C4.67102 41.9042 5.49508 41.0809 6.51077 41.0809H19.3391C19.6303 41.0809 19.8664 40.8448 19.8664 40.5536C19.8664 40.2623 19.6303 40.0262 19.3391 40.0262H6.51077C4.91289 40.0262 3.61633 41.3214 3.61633 42.9207V47.2958Z" fill="white"/>
</g>
<g id="g175">
<path id="path177 (Stroke)" fill-rule="evenodd" clip-rule="evenodd" d="M6.5108 41.0808C6.80205 41.0808 7.03815 40.8447 7.03815 40.5535V38.0359H21.2356C21.5268 38.0359 21.7629 37.7998 21.7629 37.5086C21.7629 37.2173 21.5268 36.9812 21.2356 36.9812H6.5108C6.21956 36.9812 5.98346 37.2173 5.98346 37.5086V40.5535C5.98346 40.8447 6.21956 41.0808 6.5108 41.0808Z" fill="white"/>
</g>
<g id="g179">
<path id="path181 (Stroke)" fill-rule="evenodd" clip-rule="evenodd" d="M8.18085 26.9433C8.18085 28.4466 9.39954 29.6653 10.9028 29.6653H19.9718C21.475 29.6653 22.6937 28.4466 22.6937 26.9433C22.6937 25.4401 21.475 24.2214 19.9718 24.2214H10.9028C9.39954 24.2214 8.18085 25.4401 8.18085 26.9433ZM10.9028 28.6106C9.98203 28.6106 9.23553 27.8641 9.23553 26.9433C9.23553 26.0226 9.98203 25.2761 10.9028 25.2761H19.9718C20.8925 25.2761 21.639 26.0226 21.639 26.9433C21.639 27.8641 20.8925 28.6106 19.9718 28.6106H10.9028Z" fill="white"/>
</g>
<g id="g183">
<path id="path185 (Stroke)" fill-rule="evenodd" clip-rule="evenodd" d="M6.03209 37.73C6.15432 37.9943 6.46771 38.1095 6.73206 37.9873C10.8679 36.075 11.4302 31.824 11.4302 29.1379C11.4302 28.8467 11.1941 28.6106 10.9028 28.6106C10.6116 28.6106 10.3755 28.8467 10.3755 29.1379C10.3755 31.7672 9.81255 35.401 6.28943 37.03C6.02508 37.1522 5.90986 37.4656 6.03209 37.73Z" fill="white"/>
</g>
<g id="g187">
<path id="path189 (Stroke)" fill-rule="evenodd" clip-rule="evenodd" d="M22.4009 36.2084C22.6184 36.0147 22.6377 35.6813 22.444 35.4638C20.8151 33.6349 20.4992 31.0964 20.4992 29.138C20.4992 28.8467 20.2631 28.6106 19.9719 28.6106C19.6806 28.6106 19.4445 28.8467 19.4445 29.138C19.4445 31.1581 19.7586 34.0344 21.6564 36.1653C21.8501 36.3828 22.1834 36.4021 22.4009 36.2084Z" fill="white"/>
</g>
<g id="g191">
<path id="path193 (Stroke)" fill-rule="evenodd" clip-rule="evenodd" d="M18.0601 47.2958C18.0601 47.587 18.2962 47.8231 18.5874 47.8231H43.8563C44.1476 47.8231 44.3837 47.587 44.3837 47.2958V42.4007C44.3837 40.6471 42.9621 39.2256 41.2084 39.2256H21.2353C19.4816 39.2256 18.0601 40.6471 18.0601 42.4007V47.2958ZM19.1147 46.7684V42.4007C19.1147 41.2297 20.0641 40.2803 21.2353 40.2803H41.2084C42.3796 40.2803 43.329 41.2297 43.329 42.4007V46.7684H19.1147Z" fill="white"/>
</g>
<g id="g195">
<path id="path197 (Stroke)" fill-rule="evenodd" clip-rule="evenodd" d="M21.2353 40.2803C21.5265 40.2803 21.7626 40.0442 21.7626 39.7529V36.8738H40.6811V39.7529C40.6811 40.0442 40.9172 40.2803 41.2084 40.2803C41.4997 40.2803 41.7358 40.0442 41.7358 39.7529V36.3464C41.7358 36.0552 41.4997 35.8191 41.2084 35.8191H21.2353C20.944 35.8191 20.7079 36.0552 20.7079 36.3464V39.7529C20.7079 40.0442 20.944 40.2803 21.2353 40.2803Z" fill="white"/>
</g>
<g id="g199">
<path id="path201 (Stroke)" fill-rule="evenodd" clip-rule="evenodd" d="M20.7566 36.5677C20.8788 36.8321 21.1922 36.9473 21.4566 36.8251C22.702 36.2492 23.6127 34.9731 24.2911 33.4689C24.9768 31.9487 25.4667 30.1024 25.8169 28.251C26.5176 24.5459 26.6763 20.7238 26.6763 19.2152C26.6763 18.924 26.4402 18.6879 26.149 18.6879C25.8577 18.6879 25.6216 18.924 25.6216 19.2152C25.6216 20.68 25.4656 24.433 24.7805 28.055C24.4378 29.867 23.967 31.6223 23.3297 33.0353C22.6852 34.4644 21.9106 35.4532 21.0139 35.8678C20.7496 35.99 20.6343 36.3034 20.7566 36.5677Z" fill="white"/>
</g>
<g id="g203">
<path id="path205 (Stroke)" fill-rule="evenodd" clip-rule="evenodd" d="M41.6875 36.5679C41.8096 36.3035 41.6943 35.9901 41.4298 35.868C40.84 35.5956 40.2973 35.0719 39.8063 34.3195C39.6471 34.0756 39.3204 34.0069 39.0765 34.1661C38.8326 34.3253 38.7639 34.652 38.9231 34.8959C39.4783 35.7467 40.1565 36.4417 40.9877 36.8256C41.2521 36.9477 41.5654 36.8323 41.6875 36.5679Z" fill="white"/>
</g>
<g id="g207">
<path id="path209 (Stroke)" fill-rule="evenodd" clip-rule="evenodd" d="M38.3418 32.5773C38.6163 32.48 38.76 32.1786 38.6627 31.9041C37.1202 27.5532 36.8217 21.2453 36.8217 19.215C36.8217 18.9237 36.5856 18.6876 36.2944 18.6876C36.0031 18.6876 35.767 18.9237 35.767 19.215C35.767 21.2684 36.063 27.7274 37.6686 32.2565C37.7659 32.531 38.0673 32.6747 38.3418 32.5773Z" fill="white"/>
</g>
<g id="g211">
<path id="path213 (Stroke)" fill-rule="evenodd" clip-rule="evenodd" d="M23.1663 16.76C23.1663 18.4072 24.5017 19.7426 26.1489 19.7426H36.2948C37.942 19.7426 39.2774 18.4073 39.2774 16.76C39.2774 15.1127 37.942 13.7774 36.2948 13.7774H26.1489C24.5017 13.7774 23.1663 15.1127 23.1663 16.76ZM26.1489 18.6879C25.0842 18.6879 24.221 17.8247 24.221 16.76C24.221 15.6952 25.0842 14.8321 26.1489 14.8321H36.2948C37.3596 14.8321 38.2228 15.6953 38.2228 16.76C38.2228 17.8247 37.3596 18.6879 36.2948 18.6879H26.1489Z" fill="white"/>
</g>
<g id="g215">
<path id="path217 (Stroke)" fill-rule="evenodd" clip-rule="evenodd" d="M21.1728 10.7597C21.3812 13.0659 23.3153 14.8318 25.6306 14.8318H36.8137C39.1293 14.8318 41.0622 13.0656 41.2715 10.7598L41.2715 10.7597L42.1771 0.751277C42.1905 0.603756 42.1412 0.457421 42.0413 0.348064C41.9414 0.238706 41.8001 0.17641 41.6519 0.17641H38.2067C37.9424 0.17641 37.719 0.372023 37.684 0.633972L37.0984 5.02091C37.0253 5.56801 36.5586 5.97654 36.0067 5.97654C35.3985 5.97654 34.9055 5.48349 34.9055 4.87525V0.703753C34.9055 0.41251 34.6694 0.17641 34.3782 0.17641H28.0662C27.7749 0.17641 27.5388 0.41251 27.5388 0.703753V4.87525C27.5388 5.48349 27.0458 5.97654 26.4376 5.97654H26.4375C25.8857 5.97654 25.419 5.56803 25.346 5.02092L24.7603 0.633972C24.7253 0.372023 24.5019 0.17641 24.2376 0.17641H20.7914C20.6433 0.17641 20.502 0.238713 20.4021 0.348083C20.3022 0.45745 20.2529 0.603797 20.2663 0.751326L21.1728 10.7596C21.1728 10.7596 21.1728 10.7597 21.1728 10.7597ZM25.6306 13.7771C23.8606 13.7771 22.3824 12.427 22.2232 10.6647L21.3687 1.2311H23.776L24.3005 5.16047C24.4435 6.23148 25.3572 7.03122 26.4375 7.03122H26.4376C27.6284 7.03122 28.5935 6.0659 28.5935 4.87525V1.2311H33.8508V4.87525C33.8508 6.0659 34.816 7.03122 36.0067 7.03122C37.0871 7.03122 38.0008 6.2315 38.1438 5.16047L38.6683 1.2311H41.0747L40.2211 10.6644C40.0611 12.4272 38.5835 13.7771 36.8137 13.7771H25.6306Z" fill="white"/>
</g>
</g>
</g>
</g>
</g>
</g>
</g>
</svg>
