<svg width="56" height="56" viewBox="0 0 56 56" fill="none" xmlns="http://www.w3.org/2000/svg">
<path d="M51.7114 7.44124H4.28843C3.89523 7.44752 3.50471 7.3755 3.13961 7.22938C2.77452 7.08325 2.44215 6.86594 2.16187 6.5901C1.88158 6.31426 1.65899 5.9854 1.50705 5.62269C1.3551 5.25997 1.27686 4.87065 1.27686 4.4774C1.27686 4.08415 1.3551 3.69483 1.50705 3.33211C1.65899 2.9694 1.88158 2.64055 2.16187 2.3647C2.44215 2.08886 2.77452 1.87155 3.13961 1.72542C3.50471 1.5793 3.89523 1.50728 4.28843 1.51356H51.7114C52.1046 1.50728 52.4951 1.5793 52.8602 1.72542C53.2253 1.87155 53.5576 2.08886 53.8379 2.3647C54.1182 2.64055 54.3408 2.9694 54.4927 3.33211C54.6447 3.69483 54.7229 4.08415 54.7229 4.4774C54.7229 4.87065 54.6447 5.25997 54.4927 5.62269C54.3408 5.9854 54.1182 6.31426 53.8379 6.5901C53.5576 6.86594 53.2253 7.08325 52.8602 7.22938C52.4951 7.3755 52.1046 7.44752 51.7114 7.44124ZM4.28843 3.02708C4.09519 3.02266 3.90301 3.05691 3.72318 3.12781C3.54336 3.19871 3.37951 3.30484 3.24128 3.43995C3.10305 3.57506 2.99321 3.73644 2.91822 3.9146C2.84323 4.09275 2.8046 4.2841 2.8046 4.4774C2.8046 4.6707 2.84323 4.86205 2.91822 5.0402C2.99321 5.21836 3.10305 5.37974 3.24128 5.51485C3.37951 5.64996 3.54336 5.75609 3.72318 5.82699C3.90301 5.89789 4.09519 5.93214 4.28843 5.92772H51.7114C51.9046 5.93214 52.0968 5.89789 52.2766 5.82699C52.4564 5.75609 52.6203 5.64996 52.7585 5.51485C52.8967 5.37974 53.0066 5.21836 53.0816 5.0402C53.1566 4.86205 53.1952 4.6707 53.1952 4.4774C53.1952 4.2841 53.1566 4.09275 53.0816 3.9146C53.0066 3.73644 52.8967 3.57506 52.7585 3.43995C52.6203 3.30484 52.4564 3.19871 52.2766 3.12781C52.0968 3.05691 51.9046 3.02266 51.7114 3.02708H4.28843Z" fill="white"/>
<path d="M51.7114 37.2074H4.28843C3.89523 37.2136 3.50471 37.1416 3.13961 36.9955C2.77452 36.8494 2.44215 36.632 2.16187 36.3562C1.88158 36.0804 1.65899 35.7515 1.50705 35.3888C1.3551 35.0261 1.27686 34.6368 1.27686 34.2435C1.27686 33.8503 1.3551 33.4609 1.50705 33.0982C1.65899 32.7355 1.88158 32.4067 2.16187 32.1308C2.44215 31.855 2.77452 31.6377 3.13961 31.4915C3.50471 31.3454 3.89523 31.2734 4.28843 31.2797H51.7114C52.1046 31.2734 52.4951 31.3454 52.8602 31.4915C53.2253 31.6377 53.5576 31.855 53.8379 32.1308C54.1182 32.4067 54.3408 32.7355 54.4927 33.0982C54.6447 33.4609 54.7229 33.8503 54.7229 34.2435C54.7229 34.6368 54.6447 35.0261 54.4927 35.3888C54.3408 35.7515 54.1182 36.0804 53.8379 36.3562C53.5576 36.632 53.2253 36.8494 52.8602 36.9955C52.4951 37.1416 52.1046 37.2136 51.7114 37.2074ZM4.28843 32.7924C4.09519 32.788 3.90301 32.8223 3.72318 32.8932C3.54336 32.9641 3.37951 33.0702 3.24128 33.2053C3.10305 33.3404 2.99321 33.5018 2.91822 33.68C2.84323 33.8581 2.8046 34.0495 2.8046 34.2428C2.8046 34.4361 2.84323 34.6274 2.91822 34.8056C2.99321 34.9837 3.10305 35.1451 3.24128 35.2802C3.37951 35.4153 3.54336 35.5214 3.72318 35.5923C3.90301 35.6632 4.09519 35.6975 4.28843 35.6931H51.7114C51.9046 35.6975 52.0968 35.6632 52.2766 35.5923C52.4564 35.5214 52.6203 35.4153 52.7585 35.2802C52.8967 35.1451 53.0066 34.9837 53.0816 34.8056C53.1566 34.6274 53.1952 34.4361 53.1952 34.2428C53.1952 34.0495 53.1566 33.8581 53.0816 33.68C53.0066 33.5018 52.8967 33.3404 52.7585 33.2053C52.6203 33.0702 52.4564 32.9641 52.2766 32.8932C52.0968 32.8223 51.9046 32.788 51.7114 32.7924H4.28843Z" fill="white"/>
<path d="M51.3329 32.7926C51.1322 32.7926 50.9397 32.7129 50.7978 32.571C50.6559 32.429 50.5762 32.2365 50.5762 32.0358V6.68449C50.5762 6.48379 50.6559 6.2913 50.7978 6.14938C50.9397 6.00746 51.1322 5.92773 51.3329 5.92773C51.5336 5.92773 51.7261 6.00746 51.868 6.14938C52.01 6.2913 52.0897 6.48379 52.0897 6.68449V32.0358C52.0897 32.2365 52.01 32.429 51.868 32.571C51.7261 32.7129 51.5336 32.7926 51.3329 32.7926Z" fill="white"/>
<path d="M4.66691 32.7926C4.46621 32.7926 4.27372 32.7129 4.13181 32.571C3.98989 32.429 3.91016 32.2365 3.91016 32.0358V6.68449C3.91016 6.48379 3.98989 6.2913 4.13181 6.14938C4.27372 6.00746 4.46621 5.92773 4.66691 5.92773C4.86762 5.92773 5.0601 6.00746 5.20202 6.14938C5.34394 6.2913 5.42367 6.48379 5.42367 6.68449V32.0358C5.42367 32.2365 5.34394 32.429 5.20202 32.571C5.0601 32.7129 4.86762 32.7926 4.66691 32.7926Z" fill="white"/>
<path d="M27.9999 54.108C27.7992 54.108 27.6067 54.0283 27.4648 53.8864C27.3229 53.7444 27.2432 53.552 27.2432 53.3513V36.4506C27.2432 36.2499 27.3229 36.0574 27.4648 35.9155C27.6067 35.7736 27.7992 35.6938 27.9999 35.6938C28.2006 35.6938 28.3931 35.7736 28.535 35.9155C28.6769 36.0574 28.7567 36.2499 28.7567 36.4506V53.3513C28.7567 53.552 28.6769 53.7444 28.535 53.8864C28.3931 54.0283 28.2006 54.108 27.9999 54.108Z" fill="white"/>
<path d="M38.4055 54.108H35.8279C35.6938 54.108 35.5621 54.0723 35.4462 54.0046C35.3304 53.9369 35.2347 53.8397 35.1688 53.7228L32.7177 49.3783H23.2824L20.8321 53.7228C20.7662 53.8397 20.6704 53.9369 20.5546 54.0046C20.4388 54.0723 20.3071 54.108 20.1729 54.108H17.5946C17.3939 54.108 17.2015 54.0283 17.0595 53.8863C16.9176 53.7444 16.8379 53.5519 16.8379 53.3512C16.8379 53.1505 16.9176 52.958 17.0595 52.8161C17.2015 52.6742 17.3939 52.5945 17.5946 52.5945H19.7302L22.1806 48.2499C22.2465 48.1331 22.3422 48.0358 22.458 47.9681C22.5738 47.9004 22.7056 47.8648 22.8397 47.8647H33.1596C33.2938 47.8648 33.4255 47.9004 33.5413 47.9681C33.6571 48.0358 33.7529 48.1331 33.8188 48.2499L36.2699 52.5945H38.4055C38.6062 52.5945 38.7986 52.6742 38.9406 52.8161C39.0825 52.958 39.1622 53.1505 39.1622 53.3512C39.1622 53.5519 39.0825 53.7444 38.9406 53.8863C38.7986 54.0283 38.6062 54.108 38.4055 54.108Z" fill="white"/>
<path d="M16.4601 26.6439C16.305 26.6442 16.1536 26.5967 16.0263 26.5081C15.8991 26.4194 15.8021 26.2938 15.7486 26.1482C15.6951 26.0026 15.6876 25.8441 15.7272 25.6942C15.7667 25.5442 15.8514 25.41 15.9697 25.3097L22.213 20.0124C22.354 19.8929 22.534 19.8291 22.7189 19.8331C22.9037 19.8372 23.0807 19.9088 23.2164 20.0344L26.5045 23.075L39.0485 12.2595C39.2021 12.1416 39.3951 12.0871 39.5876 12.1071C39.7802 12.1271 39.9577 12.2202 40.0838 12.3672C40.2098 12.5141 40.2747 12.7038 40.2651 12.8972C40.2556 13.0906 40.1723 13.2729 40.0323 13.4067L26.9805 24.6635C26.8397 24.7849 26.6591 24.8503 26.4732 24.8471C26.2873 24.8439 26.1091 24.7723 25.9725 24.6461L22.6807 21.6016L16.9513 26.4646C16.814 26.5808 16.6399 26.6444 16.4601 26.6439Z" fill="white"/>
<path d="M39.5405 19.0136C39.3398 19.0136 39.1473 18.9339 39.0054 18.792C38.8635 18.65 38.7837 18.4576 38.7837 18.2568V13.5899H34.1108C33.9101 13.5899 33.7176 13.5102 33.5757 13.3683C33.4337 13.2264 33.354 13.0339 33.354 12.8332C33.354 12.6325 33.4337 12.44 33.5757 12.2981C33.7176 12.1561 33.9101 12.0764 34.1108 12.0764H39.5405C39.7412 12.0764 39.9337 12.1561 40.0756 12.2981C40.2175 12.44 40.2972 12.6325 40.2972 12.8332V18.2568C40.2972 18.4576 40.2175 18.65 40.0756 18.792C39.9337 18.9339 39.7412 19.0136 39.5405 19.0136Z" fill="white"/>
</svg>
